G04 Layer_Color=128*
%FSLAX25Y25*%
%MOIN*%
G70*
G01*
G75*
%ADD42O,0.06000X0.02000*%
%ADD43R,0.06000X0.02000*%
%ADD44R,0.06299X0.07480*%
%ADD45R,0.07480X0.06299*%
%ADD46R,0.06500X0.06800*%
%ADD47R,0.06800X0.06500*%
%ADD48R,0.08000X0.07000*%
%ADD49R,0.07000X0.08000*%
%ADD50O,0.08000X0.02000*%
%ADD51R,0.08000X0.02000*%
D42*
X400713Y349249D02*
D03*
Y354249D02*
D03*
Y359249D02*
D03*
Y364249D02*
D03*
Y369249D02*
D03*
Y374249D02*
D03*
Y379249D02*
D03*
Y384249D02*
D03*
X421500Y349249D02*
D03*
Y354249D02*
D03*
X400213Y303500D02*
D03*
Y328500D02*
D03*
Y333500D02*
D03*
Y338500D02*
D03*
X421000Y303500D02*
D03*
Y308500D02*
D03*
Y313500D02*
D03*
Y318500D02*
D03*
Y323500D02*
D03*
Y328500D02*
D03*
Y333500D02*
D03*
X421500Y369249D02*
D03*
Y364249D02*
D03*
Y359249D02*
D03*
Y374249D02*
D03*
Y379249D02*
D03*
X400213Y308500D02*
D03*
Y313500D02*
D03*
Y318500D02*
D03*
Y323500D02*
D03*
D43*
X421500Y384249D02*
D03*
X421000Y338500D02*
D03*
D44*
X545398Y369500D02*
D03*
X557602D02*
D03*
X545398Y332000D02*
D03*
X557602D02*
D03*
X545398Y294000D02*
D03*
X557602D02*
D03*
X545398Y256000D02*
D03*
X557602D02*
D03*
X545398Y218500D02*
D03*
X557602D02*
D03*
X545398Y180500D02*
D03*
X557602D02*
D03*
X334898Y269500D02*
D03*
X347102D02*
D03*
X334898Y257500D02*
D03*
X347102D02*
D03*
D45*
X228500Y148898D02*
D03*
Y161102D02*
D03*
X216500D02*
D03*
Y148898D02*
D03*
D46*
X378500Y384249D02*
D03*
X389500D02*
D03*
X378500Y338500D02*
D03*
X389500D02*
D03*
D47*
X267000Y361000D02*
D03*
Y350000D02*
D03*
Y269000D02*
D03*
Y258000D02*
D03*
D48*
X512000Y377500D02*
D03*
Y361500D02*
D03*
Y340000D02*
D03*
Y324000D02*
D03*
Y302000D02*
D03*
Y286000D02*
D03*
Y264000D02*
D03*
Y248000D02*
D03*
Y226500D02*
D03*
Y210500D02*
D03*
X513000Y188500D02*
D03*
Y172500D02*
D03*
D49*
X514500Y136500D02*
D03*
X498500D02*
D03*
X477000D02*
D03*
X461000D02*
D03*
X440500D02*
D03*
X424500D02*
D03*
X404000D02*
D03*
X388000D02*
D03*
D50*
X458972Y384249D02*
D03*
Y379249D02*
D03*
Y374249D02*
D03*
Y369249D02*
D03*
Y364249D02*
D03*
Y359249D02*
D03*
Y354249D02*
D03*
Y349249D02*
D03*
X438500Y384249D02*
D03*
X458972Y338500D02*
D03*
Y323500D02*
D03*
Y318500D02*
D03*
Y313500D02*
D03*
Y308500D02*
D03*
Y303500D02*
D03*
X438500Y338500D02*
D03*
Y333500D02*
D03*
Y328500D02*
D03*
Y323500D02*
D03*
Y318500D02*
D03*
Y313500D02*
D03*
Y308500D02*
D03*
Y379249D02*
D03*
Y364249D02*
D03*
Y359249D02*
D03*
Y354249D02*
D03*
Y369249D02*
D03*
Y374249D02*
D03*
X458972Y328500D02*
D03*
Y333500D02*
D03*
D51*
X438500Y349249D02*
D03*
Y303500D02*
D03*
M02*
