M48
;Layer_Color=9474304
;FILE_FORMAT=2:5
INCH,LZ
;TYPE=PLATED
T1F00S00C0.01300
T2F00S00C0.01500
T3F00S00C0.01600
T4F00S00C0.02000
T5F00S00C0.02500
T6F00S00C0.02800
T7F00S00C0.02900
T8F00S00C0.03500
T9F00S00C0.04000
T10F00S00C0.04921
T11F00S00C0.13500
T12F00S00C0.15000
;TYPE=NON_PLATED
T13F00S00C0.05906
%
T01
X0243Y03775
X029Y03725
X0351Y0365
X0357Y03635
X0476682Y0354
X0474Y0351
X0471Y0348
X048Y03565
X0483Y0359
X0486Y0362
T02
X0471Y02775
X0347Y0248
X0279Y01825
X0252Y01895
X0249699Y01935
X039Y03305
X043Y03285
T03
X0466249Y0349249
T04
X03715Y01365
X0456Y01465
X0378Y03595
X03715
X0365
Y0376
X03715Y03755
X0378
T05
X0252Y0209
Y0219
Y0229
Y0239
Y0249
Y0259
Y0269
X0282
Y0259
Y0249
Y0239
Y0229
Y0219
Y0209
Y0301
Y0311
X0252
Y0301
Y0321
Y0331
Y0341
Y0351
Y0361
X0282
Y0351
Y0341
Y0331
Y0321
T06
X03655Y01055
X0495Y018
X04955Y0219
Y0256
X0495Y0294
X0557602Y0165398
X0315Y0173
X0334898Y0279898
X0347102
X03695Y0281
X02745Y02905
X0267Y02865
X0266Y0304
X02745Y02005
X0269375Y01615
X028075
X0292125
X0258
X02275Y0373
X03595Y0385
X03895Y03755
X0410751Y0379249
X0402Y03905
X03895Y03485
X0448749Y0379249
X0495Y03695
X0489Y0313
T07
X04005Y0181
X04095
X04285Y01815
X04375
X04565Y0181
X04655
Y0231
X04565
X04375Y02315
X04285
X04095Y0231
X04005
T08
X01625Y0209
Y0291
X01475
Y0209
T09
X0216Y01175
Y01275
Y01375
X02285
Y01275
Y01175
X0264
Y01275
Y01375
X0275375
Y01275
Y01175
X028675
Y01275
Y01375
X0298125
Y01275
Y01175
X0309625
Y01275
X0386Y01245
Y01145
X0406
Y01245
X04225
Y01145
X04425
Y01245
X0459
Y01145
Y01545
X04425
X04225
X0406
X0386
X0479
X04965
X05165
Y01245
Y01145
X04965
Y01245
X0479
Y01145
X0495Y01705
Y01905
Y02085
Y02285
Y0246
Y0266
Y0284
Y0304
X0525
X0535
Y0284
X0525
Y0266
X0535
Y0246
X0525
Y02285
X0535
Y02085
X0525
Y01905
X0535
Y01705
X0525
X03605Y02085
Y02185
Y02285
Y02385
Y02485
Y02585
Y02685
Y02785
Y02885
Y02985
Y03085
X03505
X03005
Y02985
Y02885
Y02785
Y02685
Y02585
Y02485
Y02385
Y02285
Y02185
Y02085
X02315Y0209
Y0199
Y0219
Y0229
Y0239
Y0249
Y0259
Y0269
Y0291
Y0301
Y0311
X01815
Y0301
Y0291
Y0269
Y0259
Y0249
Y0239
Y0229
Y0219
Y0209
Y0199
X01065Y0219
Y0229
Y0239
Y0249
Y0311
Y0321
Y0331
Y0341
X01815
Y0331
Y0321
Y0351
Y0361
X02315
Y0351
Y0341
Y0331
Y0321
X03005Y03185
Y03285
Y03385
X03605
Y03285
Y03185
X0495Y0322
Y0342
Y03595
Y03795
X0525
X0535
Y03595
X0525
Y0342
X0535
Y0322
X0525
T10
X0117051Y0114705
Y0140295
X0153551
Y0114705
X0190051
Y0140295
X035
Y0114705
X0140295Y0377949
X0114705
T11
X0552Y0113
X0116Y01905
X01165Y02785
X0318Y037
T12
X0554Y01445
T13
X0105555Y0105453
X0142055
X0178555
X0338504
X0105453Y0389445
M30
