G04 Layer_Physical_Order=1*
G04 Layer_Color=255*
%FSLAX25Y25*%
%MOIN*%
G70*
G01*
G75*
%ADD10R,0.05000X0.08000*%
%ADD11R,0.15000X0.08000*%
%ADD12C,0.05000*%
%ADD13C,0.02000*%
%ADD14C,0.01200*%
%ADD15C,0.03000*%
%ADD16C,0.03500*%
%ADD17C,0.01500*%
%ADD18C,0.01800*%
%ADD19C,0.02500*%
%ADD20C,0.05000*%
%ADD21C,0.01600*%
%ADD22C,0.04000*%
%ADD23C,0.07000*%
%ADD24C,0.08000*%
%ADD25C,0.07000*%
%ADD26O,0.10000X0.05000*%
%ADD27R,0.10000X0.05000*%
%ADD28C,0.19000*%
%ADD29R,0.08000X0.08000*%
%ADD30C,0.08500*%
%ADD31C,0.05906*%
%ADD32C,0.20000*%
%ADD33C,0.06500*%
%ADD34R,0.06500X0.06500*%
%ADD35C,0.07500*%
%ADD36R,0.07500X0.07500*%
%ADD37C,0.06000*%
%ADD38C,0.03000*%
%ADD39C,0.05000*%
%ADD40C,0.02700*%
%ADD41C,0.03500*%
D10*
X400500Y240600D02*
D03*
X418500D02*
D03*
X409500D02*
D03*
X437500D02*
D03*
X446500D02*
D03*
X428500D02*
D03*
X456500D02*
D03*
X474500D02*
D03*
X465500D02*
D03*
D11*
X409500Y265400D02*
D03*
X437500D02*
D03*
X465500D02*
D03*
D12*
X374000Y154500D02*
D03*
X298000Y171000D02*
D03*
X264000D02*
D03*
X275500D02*
D03*
X286000D02*
D03*
X361449Y166795D02*
D03*
X202000Y166000D02*
D03*
X165500D02*
D03*
X129000D02*
D03*
D13*
X288800Y284381D02*
Y327200D01*
X285000Y331000D02*
X288800Y327200D01*
X282000Y331000D02*
X285000D01*
X290500Y218500D02*
X300500Y208500D01*
X290500Y218500D02*
Y221500D01*
X288000Y224000D02*
X290500Y221500D01*
X277000Y224000D02*
X288000D01*
X275200Y225800D02*
X277000Y224000D01*
X275200Y225800D02*
Y270781D01*
X288800Y284381D01*
X347000Y222000D02*
Y248000D01*
X307500Y182500D02*
X347000Y222000D01*
X279000Y182500D02*
X307500D01*
X282000Y229000D02*
X290000D01*
X300500Y218500D01*
X298500D02*
X300500D01*
X290000Y239000D02*
X300500Y228500D01*
X282000Y239000D02*
X290000D01*
X282000Y249000D02*
X300000D01*
X389500Y348500D02*
Y375500D01*
X260000Y323000D02*
Y353000D01*
Y293500D02*
Y323000D01*
X292125Y161500D02*
Y165125D01*
X298000Y171000D01*
X303000D01*
X360500Y228500D01*
X258000Y161500D02*
Y165000D01*
X264000Y171000D01*
X269375Y161500D02*
Y164875D01*
X275500Y171000D01*
X280750Y161500D02*
Y165750D01*
X286000Y171000D01*
X428500Y181500D02*
X437500D01*
X459000Y160000D01*
Y154500D02*
Y160000D01*
X374000Y154500D02*
X386000D01*
X374000D02*
Y315000D01*
X360500Y328500D02*
X374000Y315000D01*
X334898Y279898D02*
Y384898D01*
X252000Y361000D02*
X260000Y353000D01*
Y293500D02*
X267000Y286500D01*
X252000Y331000D02*
X260000Y323000D01*
X260300Y186200D02*
X275500Y171000D01*
X227800Y186200D02*
X260300D01*
X222500Y191500D02*
X227800Y186200D01*
X222500Y191500D02*
Y368000D01*
X227500Y373000D01*
X264000Y171000D02*
Y178540D01*
X259140Y183400D02*
X264000Y178540D01*
X226640Y183400D02*
X259140D01*
X219700Y190340D02*
X226640Y183400D01*
X219700Y190340D02*
Y372200D01*
X290000Y372500D02*
X290500Y372000D01*
X282000Y341000D02*
X284000D01*
X290500Y347500D01*
Y372000D01*
X219700Y372200D02*
X225000Y377500D01*
X243000D01*
X459000Y154500D02*
X479000D01*
D14*
X360500Y278500D02*
X361500D01*
X339000Y301000D02*
X361500Y278500D01*
X339000Y301000D02*
Y357394D01*
X350006Y368400D01*
X341000Y308000D02*
Y356000D01*
Y308000D02*
X360500Y288500D01*
X410751Y379249D02*
X448749D01*
X496000Y154500D02*
X496500D01*
X390000Y330500D02*
X428000D01*
X430000Y328500D01*
X341000Y356000D02*
X350000Y365000D01*
X351000D01*
X350006Y368400D02*
X352100D01*
X357000Y363500D01*
D15*
X365500Y105500D02*
X413500D01*
X450000D02*
X487500D01*
X413500D02*
X450000D01*
X106500Y341000D02*
X181500D01*
X106500Y249000D02*
X181500D01*
X315000Y173000D02*
X360500Y218500D01*
X413500Y105500D02*
X422500Y114500D01*
X450000Y105500D02*
X459000Y114500D01*
X527000Y105500D02*
X533000Y111500D01*
X487500Y105500D02*
X496500Y114500D01*
X487500Y105500D02*
X527000D01*
X533000Y111500D02*
Y140795D01*
X557602Y165398D01*
D16*
X512500Y329500D02*
Y367000D01*
Y291500D02*
Y329500D01*
Y253500D02*
Y291500D01*
Y178500D02*
Y216000D01*
Y253500D01*
X228000Y127500D02*
X245500Y110000D01*
X106500Y331000D02*
X181500D01*
X106500Y311000D02*
X181500D01*
X106500Y321000D02*
X181500D01*
X106500Y239000D02*
X181500D01*
X106500Y219000D02*
X181500D01*
X106500Y229000D02*
X181500D01*
X117051Y140295D02*
Y154051D01*
X129000Y166000D01*
X162000Y199000D02*
X181500D01*
X152000Y209000D02*
X162000Y199000D01*
X129000Y166000D02*
X162000Y199000D01*
X147500Y209000D02*
X152000D01*
X181500Y199000D02*
X188500Y206000D01*
Y284000D01*
X181500Y291000D02*
X188500Y284000D01*
X170500Y280000D02*
X181500Y291000D01*
X158500Y280000D02*
X170500D01*
X147500Y291000D02*
X158500Y280000D01*
X516500Y124500D02*
Y125500D01*
X506000Y136000D02*
X516500Y125500D01*
X506000Y172000D02*
X512500Y178500D01*
X524500Y190500D02*
X525000D01*
X512500Y178500D02*
X524500Y190500D01*
X512500Y216000D02*
X525000Y228500D01*
X512500Y253500D02*
X525000Y266000D01*
X512500Y367000D02*
X525000Y379500D01*
X512500Y291500D02*
X525000Y304000D01*
X512500Y329500D02*
X525000Y342000D01*
X245500Y110000D02*
X331269D01*
X345769Y124500D01*
X386000D01*
X506000Y136000D02*
Y172000D01*
X454000Y136000D02*
X467500D01*
X506000D01*
X467500D02*
X479000Y124500D01*
X442500D02*
X454000Y136000D01*
X398000Y146500D02*
X456000D01*
X388000Y136500D02*
X398000Y146500D01*
X371500Y136500D02*
X388000D01*
D17*
X446500Y225000D02*
X469000D01*
X418500D02*
X446500D01*
X393500D02*
X418500D01*
X231500Y341000D02*
X252000D01*
X231500Y249000D02*
X252000D01*
X231500Y239000D02*
X252000D01*
X231500Y331000D02*
X252000D01*
X495000Y342000D02*
Y359500D01*
Y304000D02*
Y322000D01*
Y266000D02*
Y284000D01*
Y228500D02*
Y246000D01*
X350000Y140295D02*
Y155346D01*
X361449Y166795D01*
X350000Y140295D02*
X357205Y147500D01*
X386142D01*
X391050Y152408D01*
Y222550D01*
X393500Y225000D01*
X418500D02*
Y240600D01*
X469000Y225000D02*
X474500Y230500D01*
Y240600D01*
X446500Y225000D02*
Y240600D01*
X336205Y269000D02*
X347102Y279898D01*
X331000Y269000D02*
X336205D01*
X325000Y275000D02*
X331000Y269000D01*
X325000Y275000D02*
Y335500D01*
X314000Y346500D02*
X325000Y335500D01*
X297500Y346500D02*
X314000D01*
X287000Y336000D02*
X297500Y346500D01*
X270500Y336000D02*
X287000D01*
X266500Y332000D02*
X270500Y336000D01*
X266500Y304000D02*
Y332000D01*
X252000Y284000D02*
Y301000D01*
Y284000D02*
X267500Y268500D01*
Y222000D02*
Y268500D01*
X254500Y209000D02*
X267500Y222000D01*
X252000Y209000D02*
X254500D01*
X226000Y244500D02*
X231500Y239000D01*
X226000Y244500D02*
Y274000D01*
X228500Y276500D01*
X242000D01*
X249500Y269000D01*
X252000D01*
X365000Y359500D02*
Y376000D01*
X371500Y359500D02*
Y375500D01*
X378000Y359500D02*
Y375500D01*
D18*
X360500Y308500D02*
X369500Y299500D01*
Y281000D02*
Y299500D01*
X400500Y181000D02*
X409500D01*
X422500Y168000D01*
Y154500D02*
Y168000D01*
X456500Y181000D02*
X465500D01*
X469500D01*
X496000Y154500D01*
X486000Y362000D02*
X486500Y361500D01*
X422500Y154500D02*
X442500D01*
X486500Y341500D02*
Y361500D01*
Y341500D02*
X489000Y339000D01*
Y313000D02*
Y339000D01*
X486500Y369500D02*
X495000D01*
X466249Y349249D02*
X486500Y369500D01*
D19*
X301000Y193500D02*
X313000Y205500D01*
Y278500D01*
X303000Y288500D02*
X313000Y278500D01*
X300500Y288500D02*
X303000D01*
X302657Y189500D02*
X317000Y203843D01*
Y282000D01*
X300500Y298500D02*
X317000Y282000D01*
X190051Y140295D02*
Y154051D01*
X202000Y166000D01*
X235500D01*
X264000Y137500D01*
X275375D01*
X286750D01*
X298125D01*
X336000D01*
X343000Y130500D01*
X390000D01*
X406000Y114500D01*
Y115849D01*
X495000Y163849D02*
X502050Y156799D01*
X495000Y163849D02*
Y170500D01*
X249699Y193500D02*
X301000D01*
X252000Y189500D02*
X302657D01*
X252000Y361000D02*
X276000Y385000D01*
X359500D01*
X494000Y379500D02*
X495000D01*
X402000Y390500D02*
X483000D01*
X494000Y379500D01*
X495000Y170500D02*
X501500Y177000D01*
Y184000D01*
X495000Y190500D02*
X501500Y184000D01*
X495000Y190500D02*
Y208500D01*
Y228500D02*
X501500Y222000D01*
Y215000D02*
Y222000D01*
X495000Y208500D02*
X501500Y215000D01*
X495000Y266000D02*
X501500Y259500D01*
Y252500D02*
Y259500D01*
X495000Y246000D02*
X501500Y252500D01*
X495000Y304000D02*
X501500Y297500D01*
X495000Y284000D02*
X501500Y290500D01*
Y297500D01*
X495000Y342000D02*
X501500Y335500D01*
Y328500D02*
Y335500D01*
X495000Y322000D02*
X501500Y328500D01*
X495000Y379500D02*
X501500Y373000D01*
Y366000D02*
Y373000D01*
X495000Y359500D02*
X501500Y366000D01*
X502050Y149150D02*
Y156799D01*
X406000Y115849D02*
X424651Y134500D01*
X447126D01*
X452426Y139800D01*
X492700D02*
X502050Y149150D01*
X452426Y139800D02*
X492700D01*
D20*
X409500Y231000D02*
Y240600D01*
Y265400D01*
X400500Y231000D02*
Y240600D01*
X437500Y231500D02*
Y240600D01*
Y265400D01*
X428500Y231500D02*
Y240600D01*
X465500Y231000D02*
Y240600D01*
Y265400D01*
X456500Y231000D02*
Y240600D01*
D21*
X483600Y191400D02*
Y257400D01*
Y191400D02*
X495000Y180000D01*
X486000Y223500D02*
Y259000D01*
Y223500D02*
X490500Y219000D01*
X495500D01*
X477500Y267500D02*
X486000Y259000D01*
X474000Y351000D02*
X475000Y350000D01*
X479900Y271600D02*
X495500Y256000D01*
X477500Y267500D02*
Y353182D01*
X475000Y266000D02*
X483600Y257400D01*
X475000Y266000D02*
Y350000D01*
X471000Y277500D02*
Y348000D01*
X479900Y271600D02*
X480000Y271700D01*
X476682Y354000D02*
X477500Y353182D01*
X480000Y271700D02*
Y356500D01*
X495000Y294000D02*
Y295000D01*
X483000Y307000D02*
X495000Y295000D01*
X483000Y307000D02*
Y359000D01*
D22*
X153551Y140295D02*
Y154051D01*
X165500Y166000D01*
X194000Y194500D01*
Y364500D01*
X180551Y377949D02*
X194000Y364500D01*
X140295Y377949D02*
X180551D01*
D23*
X153551Y140295D02*
X166346Y127500D01*
X214500D01*
X216500D02*
X228000D01*
D24*
X360500Y268500D02*
D03*
Y258500D02*
D03*
Y208500D02*
D03*
Y218500D02*
D03*
Y228500D02*
D03*
Y238500D02*
D03*
Y248500D02*
D03*
Y278500D02*
D03*
Y288500D02*
D03*
Y298500D02*
D03*
Y308500D02*
D03*
Y318500D02*
D03*
Y328500D02*
D03*
Y338500D02*
D03*
X300500Y208500D02*
D03*
Y218500D02*
D03*
Y228500D02*
D03*
Y238500D02*
D03*
Y248500D02*
D03*
Y258500D02*
D03*
Y268500D02*
D03*
Y278500D02*
D03*
Y288500D02*
D03*
Y298500D02*
D03*
Y308500D02*
D03*
Y318500D02*
D03*
Y328500D02*
D03*
D25*
X106500Y239000D02*
D03*
Y219000D02*
D03*
Y229000D02*
D03*
Y249000D02*
D03*
X386000Y114500D02*
D03*
Y124500D02*
D03*
X406000Y114500D02*
D03*
Y124500D02*
D03*
X386000Y154500D02*
D03*
X406000D02*
D03*
X442500D02*
D03*
X422500D02*
D03*
X442500Y124500D02*
D03*
Y114500D02*
D03*
X422500Y124500D02*
D03*
Y114500D02*
D03*
X459000D02*
D03*
Y124500D02*
D03*
X479000Y114500D02*
D03*
Y124500D02*
D03*
X459000Y154500D02*
D03*
X479000D02*
D03*
X516500D02*
D03*
X496500D02*
D03*
X516500Y124500D02*
D03*
Y114500D02*
D03*
X496500Y124500D02*
D03*
Y114500D02*
D03*
X535000Y170500D02*
D03*
X525000D02*
D03*
X535000Y190500D02*
D03*
X525000D02*
D03*
X495000Y170500D02*
D03*
Y190500D02*
D03*
Y228500D02*
D03*
Y208500D02*
D03*
X525000Y228500D02*
D03*
X535000D02*
D03*
X525000Y208500D02*
D03*
X535000D02*
D03*
Y246000D02*
D03*
X525000D02*
D03*
X535000Y266000D02*
D03*
X525000D02*
D03*
X495000Y246000D02*
D03*
Y266000D02*
D03*
Y304000D02*
D03*
Y284000D02*
D03*
X525000Y304000D02*
D03*
X535000D02*
D03*
X525000Y284000D02*
D03*
X535000D02*
D03*
Y322000D02*
D03*
X525000D02*
D03*
X535000Y342000D02*
D03*
X525000D02*
D03*
X495000Y322000D02*
D03*
Y342000D02*
D03*
Y379500D02*
D03*
Y359500D02*
D03*
X525000Y379500D02*
D03*
X535000D02*
D03*
X525000Y359500D02*
D03*
X535000D02*
D03*
X309625Y127500D02*
D03*
Y117500D02*
D03*
X298125Y137500D02*
D03*
Y127500D02*
D03*
Y117500D02*
D03*
X264000Y137500D02*
D03*
Y127500D02*
D03*
Y117500D02*
D03*
X275375Y137500D02*
D03*
Y127500D02*
D03*
Y117500D02*
D03*
X286750Y137500D02*
D03*
Y127500D02*
D03*
Y117500D02*
D03*
X228500D02*
D03*
Y127500D02*
D03*
Y137500D02*
D03*
X216000Y117500D02*
D03*
Y127500D02*
D03*
Y137500D02*
D03*
X106500Y341000D02*
D03*
Y311000D02*
D03*
Y321000D02*
D03*
Y331000D02*
D03*
D26*
X282000Y301000D02*
D03*
Y311000D02*
D03*
Y321000D02*
D03*
Y331000D02*
D03*
Y341000D02*
D03*
Y351000D02*
D03*
Y361000D02*
D03*
X252000Y301000D02*
D03*
Y311000D02*
D03*
Y321000D02*
D03*
Y331000D02*
D03*
Y341000D02*
D03*
Y351000D02*
D03*
X282000Y209000D02*
D03*
Y219000D02*
D03*
Y229000D02*
D03*
Y239000D02*
D03*
Y249000D02*
D03*
Y259000D02*
D03*
Y269000D02*
D03*
X252000Y209000D02*
D03*
Y219000D02*
D03*
Y229000D02*
D03*
Y239000D02*
D03*
Y249000D02*
D03*
Y259000D02*
D03*
D27*
Y361000D02*
D03*
Y269000D02*
D03*
D28*
X554000Y144500D02*
D03*
D29*
X300500Y338500D02*
D03*
D30*
X140295Y377949D02*
D03*
X114705D02*
D03*
X350000Y140295D02*
D03*
Y114705D02*
D03*
X190051Y140295D02*
D03*
Y114705D02*
D03*
X153551Y140295D02*
D03*
Y114705D02*
D03*
X117051Y140295D02*
D03*
Y114705D02*
D03*
D31*
X105453Y389445D02*
D03*
X338504Y105453D02*
D03*
X178555D02*
D03*
X142055D02*
D03*
X105555D02*
D03*
D32*
X318000Y370000D02*
D03*
X116500Y278500D02*
D03*
X552000Y113000D02*
D03*
X116000Y190500D02*
D03*
D33*
X181500Y361000D02*
D03*
Y351000D02*
D03*
Y341000D02*
D03*
Y331000D02*
D03*
Y321000D02*
D03*
Y311000D02*
D03*
Y301000D02*
D03*
Y291000D02*
D03*
X231500Y361000D02*
D03*
Y351000D02*
D03*
Y341000D02*
D03*
Y331000D02*
D03*
Y321000D02*
D03*
Y311000D02*
D03*
Y301000D02*
D03*
X181500Y269000D02*
D03*
Y259000D02*
D03*
Y249000D02*
D03*
Y239000D02*
D03*
Y229000D02*
D03*
Y219000D02*
D03*
Y209000D02*
D03*
Y199000D02*
D03*
X231500Y269000D02*
D03*
Y259000D02*
D03*
Y249000D02*
D03*
Y239000D02*
D03*
Y229000D02*
D03*
Y219000D02*
D03*
Y209000D02*
D03*
D34*
Y291000D02*
D03*
Y199000D02*
D03*
D35*
X162500Y291000D02*
D03*
Y209000D02*
D03*
D36*
X147500Y291000D02*
D03*
Y209000D02*
D03*
D37*
X465500Y181000D02*
D03*
Y231000D02*
D03*
X437500Y181500D02*
D03*
Y231500D02*
D03*
X409500Y181000D02*
D03*
Y231000D02*
D03*
X400500Y181000D02*
D03*
Y231000D02*
D03*
X428500Y181500D02*
D03*
Y231500D02*
D03*
X456500Y181000D02*
D03*
Y231000D02*
D03*
D38*
X347000Y248000D02*
D03*
X279000Y182500D02*
D03*
X466249Y349249D02*
D03*
X390000Y330500D02*
D03*
X430000Y328500D02*
D03*
X249699Y193500D02*
D03*
X252000Y189500D02*
D03*
X471000Y277500D02*
D03*
D39*
X389500Y348500D02*
D03*
Y375500D02*
D03*
X292125Y161500D02*
D03*
X258000D02*
D03*
X269375D02*
D03*
X280750D02*
D03*
X369500Y281000D02*
D03*
X315000Y173000D02*
D03*
X365500Y105500D02*
D03*
X557602Y165398D02*
D03*
X410751Y379249D02*
D03*
X448749D02*
D03*
X495000Y180000D02*
D03*
X495500Y219000D02*
D03*
Y256000D02*
D03*
X334898Y279898D02*
D03*
X359500Y385000D02*
D03*
X267000Y286500D02*
D03*
X347102Y279898D02*
D03*
X266500Y304000D02*
D03*
X227500Y373000D02*
D03*
X402000Y390500D02*
D03*
X495000Y294000D02*
D03*
X489000Y313000D02*
D03*
X495000Y369500D02*
D03*
D40*
X290000Y372500D02*
D03*
X471000Y348000D02*
D03*
X474000Y351000D02*
D03*
X476682Y354000D02*
D03*
X480000Y356500D02*
D03*
X483000Y359000D02*
D03*
X486000Y362000D02*
D03*
X243000Y377500D02*
D03*
X351000Y365000D02*
D03*
X357000Y363500D02*
D03*
D41*
X456000Y146500D02*
D03*
X371500Y136500D02*
D03*
Y359500D02*
D03*
X365000D02*
D03*
Y376000D02*
D03*
X371500Y375500D02*
D03*
X378000D02*
D03*
Y359500D02*
D03*
M02*
