G04 Layer_Color=8388736*
%FSLAX25Y25*%
%MOIN*%
G70*
G01*
G75*
%ADD41C,0.03500*%
%ADD54R,0.05800X0.08800*%
%ADD55R,0.15800X0.08800*%
%ADD56C,0.05800*%
%ADD57C,0.08800*%
%ADD58C,0.07800*%
%ADD59O,0.10800X0.05800*%
%ADD60R,0.10800X0.05800*%
%ADD61C,0.19800*%
%ADD62R,0.08800X0.08800*%
%ADD63C,0.09300*%
%ADD64C,0.06706*%
%ADD65C,0.20800*%
%ADD66C,0.07300*%
%ADD67R,0.07300X0.07300*%
%ADD68C,0.08300*%
%ADD69R,0.08300X0.08300*%
%ADD70C,0.06800*%
%ADD71C,0.03800*%
%ADD72C,0.05800*%
%ADD73C,0.04300*%
D41*
X290000Y372500D02*
D03*
X471000Y348000D02*
D03*
X474000Y351000D02*
D03*
X476682Y354000D02*
D03*
X480000Y356500D02*
D03*
X483000Y359000D02*
D03*
X486000Y362000D02*
D03*
X243000Y377500D02*
D03*
X351000Y365000D02*
D03*
X357000Y363500D02*
D03*
D54*
X400500Y240600D02*
D03*
X418500D02*
D03*
X409500D02*
D03*
X437500D02*
D03*
X446500D02*
D03*
X428500D02*
D03*
X456500D02*
D03*
X474500D02*
D03*
X465500D02*
D03*
D55*
X409500Y265400D02*
D03*
X437500D02*
D03*
X465500D02*
D03*
D56*
X374000Y154500D02*
D03*
X298000Y171000D02*
D03*
X264000D02*
D03*
X275500D02*
D03*
X286000D02*
D03*
X361449Y166795D02*
D03*
X202000Y166000D02*
D03*
X165500D02*
D03*
X129000D02*
D03*
D57*
X360500Y268500D02*
D03*
Y258500D02*
D03*
Y208500D02*
D03*
Y218500D02*
D03*
Y228500D02*
D03*
Y238500D02*
D03*
Y248500D02*
D03*
Y278500D02*
D03*
Y288500D02*
D03*
Y298500D02*
D03*
Y308500D02*
D03*
Y318500D02*
D03*
Y328500D02*
D03*
Y338500D02*
D03*
X300500Y208500D02*
D03*
Y218500D02*
D03*
Y228500D02*
D03*
Y238500D02*
D03*
Y248500D02*
D03*
Y258500D02*
D03*
Y268500D02*
D03*
Y278500D02*
D03*
Y288500D02*
D03*
Y298500D02*
D03*
Y308500D02*
D03*
Y318500D02*
D03*
Y328500D02*
D03*
D58*
X106500Y239000D02*
D03*
Y219000D02*
D03*
Y229000D02*
D03*
Y249000D02*
D03*
X386000Y114500D02*
D03*
Y124500D02*
D03*
X406000Y114500D02*
D03*
Y124500D02*
D03*
X386000Y154500D02*
D03*
X406000D02*
D03*
X442500D02*
D03*
X422500D02*
D03*
X442500Y124500D02*
D03*
Y114500D02*
D03*
X422500Y124500D02*
D03*
Y114500D02*
D03*
X459000D02*
D03*
Y124500D02*
D03*
X479000Y114500D02*
D03*
Y124500D02*
D03*
X459000Y154500D02*
D03*
X479000D02*
D03*
X516500D02*
D03*
X496500D02*
D03*
X516500Y124500D02*
D03*
Y114500D02*
D03*
X496500Y124500D02*
D03*
Y114500D02*
D03*
X535000Y170500D02*
D03*
X525000D02*
D03*
X535000Y190500D02*
D03*
X525000D02*
D03*
X495000Y170500D02*
D03*
Y190500D02*
D03*
Y228500D02*
D03*
Y208500D02*
D03*
X525000Y228500D02*
D03*
X535000D02*
D03*
X525000Y208500D02*
D03*
X535000D02*
D03*
Y246000D02*
D03*
X525000D02*
D03*
X535000Y266000D02*
D03*
X525000D02*
D03*
X495000Y246000D02*
D03*
Y266000D02*
D03*
Y304000D02*
D03*
Y284000D02*
D03*
X525000Y304000D02*
D03*
X535000D02*
D03*
X525000Y284000D02*
D03*
X535000D02*
D03*
Y322000D02*
D03*
X525000D02*
D03*
X535000Y342000D02*
D03*
X525000D02*
D03*
X495000Y322000D02*
D03*
Y342000D02*
D03*
Y379500D02*
D03*
Y359500D02*
D03*
X525000Y379500D02*
D03*
X535000D02*
D03*
X525000Y359500D02*
D03*
X535000D02*
D03*
X309625Y127500D02*
D03*
Y117500D02*
D03*
X298125Y137500D02*
D03*
Y127500D02*
D03*
Y117500D02*
D03*
X264000Y137500D02*
D03*
Y127500D02*
D03*
Y117500D02*
D03*
X275375Y137500D02*
D03*
Y127500D02*
D03*
Y117500D02*
D03*
X286750Y137500D02*
D03*
Y127500D02*
D03*
Y117500D02*
D03*
X228500D02*
D03*
Y127500D02*
D03*
Y137500D02*
D03*
X216000Y117500D02*
D03*
Y127500D02*
D03*
Y137500D02*
D03*
X106500Y341000D02*
D03*
Y311000D02*
D03*
Y321000D02*
D03*
Y331000D02*
D03*
D59*
X282000Y301000D02*
D03*
Y311000D02*
D03*
Y321000D02*
D03*
Y331000D02*
D03*
Y341000D02*
D03*
Y351000D02*
D03*
Y361000D02*
D03*
X252000Y301000D02*
D03*
Y311000D02*
D03*
Y321000D02*
D03*
Y331000D02*
D03*
Y341000D02*
D03*
Y351000D02*
D03*
X282000Y209000D02*
D03*
Y219000D02*
D03*
Y229000D02*
D03*
Y239000D02*
D03*
Y249000D02*
D03*
Y259000D02*
D03*
Y269000D02*
D03*
X252000Y209000D02*
D03*
Y219000D02*
D03*
Y229000D02*
D03*
Y239000D02*
D03*
Y249000D02*
D03*
Y259000D02*
D03*
D60*
Y361000D02*
D03*
Y269000D02*
D03*
D61*
X554000Y144500D02*
D03*
D62*
X300500Y338500D02*
D03*
D63*
X140295Y377949D02*
D03*
X114705D02*
D03*
X350000Y140295D02*
D03*
Y114705D02*
D03*
X190051Y140295D02*
D03*
Y114705D02*
D03*
X153551Y140295D02*
D03*
Y114705D02*
D03*
X117051Y140295D02*
D03*
Y114705D02*
D03*
D64*
X105453Y389445D02*
D03*
X338504Y105453D02*
D03*
X178555D02*
D03*
X142055D02*
D03*
X105555D02*
D03*
D65*
X318000Y370000D02*
D03*
X116500Y278500D02*
D03*
X552000Y113000D02*
D03*
X116000Y190500D02*
D03*
D66*
X181500Y361000D02*
D03*
Y351000D02*
D03*
Y341000D02*
D03*
Y331000D02*
D03*
Y321000D02*
D03*
Y311000D02*
D03*
Y301000D02*
D03*
Y291000D02*
D03*
X231500Y361000D02*
D03*
Y351000D02*
D03*
Y341000D02*
D03*
Y331000D02*
D03*
Y321000D02*
D03*
Y311000D02*
D03*
Y301000D02*
D03*
X181500Y269000D02*
D03*
Y259000D02*
D03*
Y249000D02*
D03*
Y239000D02*
D03*
Y229000D02*
D03*
Y219000D02*
D03*
Y209000D02*
D03*
Y199000D02*
D03*
X231500Y269000D02*
D03*
Y259000D02*
D03*
Y249000D02*
D03*
Y239000D02*
D03*
Y229000D02*
D03*
Y219000D02*
D03*
Y209000D02*
D03*
D67*
Y291000D02*
D03*
Y199000D02*
D03*
D68*
X162500Y291000D02*
D03*
Y209000D02*
D03*
D69*
X147500Y291000D02*
D03*
Y209000D02*
D03*
D70*
X465500Y181000D02*
D03*
Y231000D02*
D03*
X437500Y181500D02*
D03*
Y231500D02*
D03*
X409500Y181000D02*
D03*
Y231000D02*
D03*
X400500Y181000D02*
D03*
Y231000D02*
D03*
X428500Y181500D02*
D03*
Y231500D02*
D03*
X456500Y181000D02*
D03*
Y231000D02*
D03*
D71*
X347000Y248000D02*
D03*
X279000Y182500D02*
D03*
X466249Y349249D02*
D03*
X390000Y330500D02*
D03*
X430000Y328500D02*
D03*
X249699Y193500D02*
D03*
X252000Y189500D02*
D03*
X471000Y277500D02*
D03*
D72*
X389500Y348500D02*
D03*
Y375500D02*
D03*
X292125Y161500D02*
D03*
X258000D02*
D03*
X269375D02*
D03*
X280750D02*
D03*
X369500Y281000D02*
D03*
X315000Y173000D02*
D03*
X365500Y105500D02*
D03*
X557602Y165398D02*
D03*
X410751Y379249D02*
D03*
X448749D02*
D03*
X495000Y180000D02*
D03*
X495500Y219000D02*
D03*
Y256000D02*
D03*
X334898Y279898D02*
D03*
X359500Y385000D02*
D03*
X267000Y286500D02*
D03*
X347102Y279898D02*
D03*
X266500Y304000D02*
D03*
X227500Y373000D02*
D03*
X402000Y390500D02*
D03*
X495000Y294000D02*
D03*
X489000Y313000D02*
D03*
X495000Y369500D02*
D03*
D73*
X456000Y146500D02*
D03*
X371500Y136500D02*
D03*
Y359500D02*
D03*
X365000D02*
D03*
Y376000D02*
D03*
X371500Y375500D02*
D03*
X378000D02*
D03*
Y359500D02*
D03*
M02*
