G04 Layer_Color=128*
%FSLAX25Y25*%
%MOIN*%
G70*
G01*
G75*
%ADD42O,0.06000X0.02000*%
%ADD43O,0.08000X0.02000*%
%ADD44R,0.08000X0.02000*%
%ADD45R,0.07000X0.08000*%
%ADD46R,0.08000X0.07000*%
%ADD47R,0.06800X0.06500*%
%ADD48R,0.06500X0.06800*%
%ADD49R,0.06299X0.07480*%
%ADD50R,0.07480X0.06299*%
%ADD51R,0.06000X0.02000*%
D42*
X400213Y323500D02*
D03*
Y318500D02*
D03*
Y313500D02*
D03*
Y308500D02*
D03*
X421500Y379249D02*
D03*
Y374249D02*
D03*
Y359249D02*
D03*
Y364249D02*
D03*
Y369249D02*
D03*
X421000Y333500D02*
D03*
Y328500D02*
D03*
Y323500D02*
D03*
Y318500D02*
D03*
Y313500D02*
D03*
Y308500D02*
D03*
Y303500D02*
D03*
X400213Y338500D02*
D03*
Y333500D02*
D03*
Y328500D02*
D03*
Y303500D02*
D03*
X421500Y354249D02*
D03*
Y349249D02*
D03*
X400713Y384249D02*
D03*
Y379249D02*
D03*
Y374249D02*
D03*
Y369249D02*
D03*
Y364249D02*
D03*
Y359249D02*
D03*
Y354249D02*
D03*
Y349249D02*
D03*
D43*
X458972Y333500D02*
D03*
Y328500D02*
D03*
X438500Y374249D02*
D03*
Y369249D02*
D03*
Y354249D02*
D03*
Y359249D02*
D03*
Y364249D02*
D03*
Y379249D02*
D03*
Y308500D02*
D03*
Y313500D02*
D03*
Y318500D02*
D03*
Y323500D02*
D03*
Y328500D02*
D03*
Y333500D02*
D03*
Y338500D02*
D03*
X458972Y303500D02*
D03*
Y308500D02*
D03*
Y313500D02*
D03*
Y318500D02*
D03*
Y323500D02*
D03*
Y338500D02*
D03*
X438500Y384249D02*
D03*
X458972Y349249D02*
D03*
Y354249D02*
D03*
Y359249D02*
D03*
Y364249D02*
D03*
Y369249D02*
D03*
Y374249D02*
D03*
Y379249D02*
D03*
Y384249D02*
D03*
D44*
X438500Y303500D02*
D03*
Y349249D02*
D03*
D45*
X388000Y136500D02*
D03*
X404000D02*
D03*
X424500D02*
D03*
X440500D02*
D03*
X461000D02*
D03*
X477000D02*
D03*
X498500D02*
D03*
X514500D02*
D03*
D46*
X513000Y172500D02*
D03*
Y188500D02*
D03*
X512000Y210500D02*
D03*
Y226500D02*
D03*
Y248000D02*
D03*
Y264000D02*
D03*
Y286000D02*
D03*
Y302000D02*
D03*
Y324000D02*
D03*
Y340000D02*
D03*
Y361500D02*
D03*
Y377500D02*
D03*
D47*
X267000Y258000D02*
D03*
Y269000D02*
D03*
Y350000D02*
D03*
Y361000D02*
D03*
D48*
X389500Y338500D02*
D03*
X378500D02*
D03*
X389500Y384249D02*
D03*
X378500D02*
D03*
D49*
X347102Y257500D02*
D03*
X334898D02*
D03*
X347102Y269500D02*
D03*
X334898D02*
D03*
X557602Y180500D02*
D03*
X545398D02*
D03*
X557602Y218500D02*
D03*
X545398D02*
D03*
X557602Y256000D02*
D03*
X545398D02*
D03*
X557602Y294000D02*
D03*
X545398D02*
D03*
X557602Y332000D02*
D03*
X545398D02*
D03*
X557602Y369500D02*
D03*
X545398D02*
D03*
D50*
X216500Y148898D02*
D03*
Y161102D02*
D03*
X228500D02*
D03*
Y148898D02*
D03*
D51*
X421000Y338500D02*
D03*
X421500Y384249D02*
D03*
M02*
