G04 Layer_Physical_Order=1*
G04 Layer_Color=255*
%FSLAX25Y25*%
%MOIN*%
G70*
G01*
G75*
%ADD10C,0.10000*%
%ADD11C,0.03300*%
%ADD12C,0.03500*%
%ADD13C,0.05500*%
%ADD14C,0.08200*%
%ADD15C,0.07000*%
%ADD16R,0.07000X0.07000*%
%ADD17R,0.06500X0.06500*%
%ADD18C,0.06500*%
%ADD19R,0.06500X0.06500*%
%ADD20C,0.07500*%
%ADD21R,0.08500X0.08500*%
%ADD22O,0.10000X0.08000*%
%ADD23R,0.07500X0.07500*%
%ADD24O,0.07500X0.09500*%
%ADD25O,0.10000X0.05000*%
%ADD26R,0.10000X0.05000*%
%ADD27O,0.08000X0.07000*%
%ADD28C,0.19000*%
%ADD29C,0.09500*%
%ADD30C,0.20000*%
%ADD31C,0.06000*%
%ADD32C,0.08000*%
G04:AMPARAMS|DCode=33|XSize=95mil|YSize=110mil|CornerRadius=23.75mil|HoleSize=0mil|Usage=FLASHONLY|Rotation=0.000|XOffset=0mil|YOffset=0mil|HoleType=Round|Shape=RoundedRectangle|*
%AMROUNDEDRECTD33*
21,1,0.09500,0.06250,0,0,0.0*
21,1,0.04750,0.11000,0,0,0.0*
1,1,0.04750,0.02375,-0.03125*
1,1,0.04750,-0.02375,-0.03125*
1,1,0.04750,-0.02375,0.03125*
1,1,0.04750,0.02375,0.03125*
%
%ADD33ROUNDEDRECTD33*%
%ADD34C,0.08500*%
%ADD35C,0.17500*%
%ADD36O,0.07500X0.12000*%
%ADD37O,0.13000X0.10000*%
%ADD38R,0.10000X0.10000*%
%ADD39C,0.05906*%
%ADD40R,0.08000X0.08000*%
%ADD41R,0.08000X0.08000*%
%ADD42C,0.05000*%
G36*
X476234Y111734D02*
X477044Y111192D01*
X478000Y111002D01*
X488500D01*
Y49000D01*
X475500D01*
Y111814D01*
X475962Y112005D01*
X476234Y111734D01*
D02*
G37*
G36*
X488500Y115998D02*
X479035D01*
X475500Y119533D01*
Y128000D01*
X488500D01*
Y115998D01*
D02*
G37*
D10*
X126000Y339000D02*
D03*
Y281250D02*
D03*
X127500Y222500D02*
D03*
X16000Y179500D02*
D03*
D11*
X95500Y205000D02*
X437315D01*
X339500Y185000D02*
Y205000D01*
X312500Y185000D02*
X339500D01*
X483500Y159500D02*
X493000Y169000D01*
X451000Y127000D02*
X483500Y159500D01*
X483815Y159185D01*
X528000D01*
X451000Y118500D02*
X473000D01*
X431000D02*
X451000D01*
Y127000D01*
X478000Y113500D02*
X497000D01*
X402200Y277500D02*
X422200Y257500D01*
X275500Y277500D02*
X402200D01*
X370237Y330500D02*
X379782Y320955D01*
X204500Y330500D02*
X370237D01*
X155250Y281250D02*
X204500Y330500D01*
X126000Y281250D02*
X155250D01*
X8000D02*
X19250D01*
X95500Y205000D01*
X106000Y281250D02*
X126000D01*
X443000Y53500D02*
X467000D01*
X473315Y169000D02*
X474000D01*
X431500Y172000D02*
X470315D01*
X437315Y205000D02*
X470315Y172000D01*
X473315Y169000D01*
X275500Y53500D02*
X443000D01*
X253000Y76000D02*
X275500Y53500D01*
X311000Y186500D02*
Y192000D01*
Y186500D02*
X312500Y185000D01*
X473000Y118500D02*
X478000Y113500D01*
X497050Y73450D02*
X512000D01*
X528000Y89450D01*
Y139500D01*
D12*
X126000Y339000D02*
X127000D01*
X8000Y340000D02*
X35000D01*
X162500Y212500D01*
X106000Y339000D02*
X126000D01*
X162500Y212500D02*
X301000D01*
Y163500D02*
Y192000D01*
X447903Y339000D02*
X465949Y320955D01*
X127000Y339000D02*
X447903D01*
X185000Y116200D02*
X210700Y90500D01*
X222500D01*
X225825Y93825D01*
X234100D01*
D13*
X174000Y267000D02*
X239661D01*
X168000D02*
X174000D01*
X160500D02*
X168000D01*
X154500D02*
X160500D01*
X239661D02*
X293616Y320955D01*
X109500Y222500D02*
X127500D01*
X289500Y123000D02*
X355500D01*
X387000Y91500D01*
X237500Y140000D02*
X272500D01*
X289500Y123000D01*
X234100Y114725D02*
X253775D01*
X262500Y106000D01*
Y76000D02*
Y106000D01*
Y76000D02*
X274500D01*
X262500Y38000D02*
Y55000D01*
Y38000D02*
X266500Y34000D01*
X11500Y222500D02*
X52000D01*
X128500Y146000D01*
X211500D01*
X227500Y130000D01*
X217450Y119950D02*
X227500Y130000D01*
X237500Y140000D01*
D14*
X25000Y76000D02*
X70185Y30815D01*
X6500Y94500D02*
X25000Y76000D01*
X70185Y7000D02*
Y26685D01*
Y30815D01*
X6500Y94500D02*
Y138500D01*
X104500D02*
X115000Y128000D01*
Y109500D02*
Y128000D01*
Y76000D02*
Y109500D01*
Y76000D02*
X253000D01*
Y99000D01*
X247725Y104275D02*
X253000Y99000D01*
X234100Y104275D02*
X247725D01*
X16000Y179500D02*
X63500D01*
X104500Y138500D01*
X19500Y30800D02*
X48385D01*
X52000Y27185D01*
Y7500D02*
Y27185D01*
D15*
X289500Y105500D02*
D03*
X431000Y101000D02*
D03*
X274500Y76000D02*
D03*
Y64500D02*
D03*
X135000Y109500D02*
D03*
X115000D02*
D03*
X185000Y116200D02*
D03*
Y136000D02*
D03*
Y105000D02*
D03*
Y85200D02*
D03*
X262500Y76000D02*
D03*
Y55000D02*
D03*
X431800Y257500D02*
D03*
X422200D02*
D03*
D16*
X289500Y123000D02*
D03*
X431000Y118500D02*
D03*
D17*
X339500Y185000D02*
D03*
D18*
Y176500D02*
D03*
X292500Y163500D02*
D03*
D19*
X301000D02*
D03*
D20*
X493000Y169000D02*
D03*
X473315D02*
D03*
X443000Y68500D02*
D03*
X431500Y157000D02*
D03*
D21*
X512000Y73475D02*
D03*
D22*
Y110975D02*
D03*
D23*
X443000Y53500D02*
D03*
X431500Y172000D02*
D03*
D24*
X311000Y192000D02*
D03*
X301000D02*
D03*
X291000D02*
D03*
D25*
X467000Y123500D02*
D03*
Y113500D02*
D03*
Y103500D02*
D03*
Y93500D02*
D03*
Y83500D02*
D03*
Y73500D02*
D03*
Y63500D02*
D03*
Y53500D02*
D03*
X497000Y123500D02*
D03*
Y113500D02*
D03*
Y103500D02*
D03*
Y93500D02*
D03*
Y83500D02*
D03*
Y73500D02*
D03*
Y63500D02*
D03*
D26*
Y53500D02*
D03*
D27*
X217450Y99050D02*
D03*
Y119950D02*
D03*
Y109500D02*
D03*
X234100Y114725D02*
D03*
Y125175D02*
D03*
Y104275D02*
D03*
Y93825D02*
D03*
D28*
X143500Y12000D02*
D03*
D29*
X71685Y7500D02*
D03*
X52000D02*
D03*
X71685Y27185D02*
D03*
X52000D02*
D03*
D30*
X151500Y317000D02*
D03*
X538000Y345500D02*
D03*
X540000Y14000D02*
D03*
X94500Y15500D02*
D03*
D31*
X225500Y277500D02*
D03*
X275500D02*
D03*
X266500Y34000D02*
D03*
X316500D02*
D03*
D32*
X528000Y139500D02*
D03*
Y159185D02*
D03*
X115000Y46500D02*
D03*
X54500Y76000D02*
D03*
D33*
X334000Y91500D02*
D03*
X387000D02*
D03*
D34*
X19500Y30800D02*
D03*
X38000Y19000D02*
D03*
X19500Y7200D02*
D03*
X465949Y346545D02*
D03*
Y320955D02*
D03*
X379782Y346545D02*
D03*
Y320955D02*
D03*
X293616Y346545D02*
D03*
Y320955D02*
D03*
X207449Y346545D02*
D03*
Y320955D02*
D03*
D35*
X205000Y159500D02*
D03*
Y59500D02*
D03*
D36*
X106000Y339000D02*
D03*
X8000D02*
D03*
Y281250D02*
D03*
X106000D02*
D03*
X8000Y222500D02*
D03*
X106000D02*
D03*
X6500Y138500D02*
D03*
X104500D02*
D03*
D37*
X142500Y191250D02*
D03*
D38*
Y131250D02*
D03*
D39*
X477445Y355797D02*
D03*
X391278D02*
D03*
X305112D02*
D03*
X218945D02*
D03*
D40*
X115000Y76000D02*
D03*
D41*
X25000D02*
D03*
D42*
X167500Y267000D02*
D03*
X161000D02*
D03*
X174000D02*
D03*
X154500D02*
D03*
X301000Y212500D02*
D03*
M02*
