G04 Layer_Color=65535*
%FSLAX25Y25*%
%MOIN*%
G70*
G01*
G75*
%ADD44C,0.01000*%
%ADD45C,0.00492*%
%ADD46C,0.00500*%
%ADD47R,0.20000X0.05000*%
%ADD48R,0.09350X0.02500*%
D44*
X71250Y76000D02*
G03*
X71250Y76000I-31500J0D01*
G01*
X146500Y61250D02*
G03*
X146500Y61250I-31500J0D01*
G01*
X548669Y149343D02*
G03*
X548669Y149343I-20669J0D01*
G01*
X447500Y164500D02*
G03*
X447500Y164500I-16000J0D01*
G01*
X459000Y61000D02*
G03*
X459000Y61000I-16000J0D01*
G01*
X504024Y169000D02*
G03*
X504024Y169000I-20866J0D01*
G01*
X306750Y163500D02*
G03*
X306750Y163500I-10000J0D01*
G01*
X349500Y180750D02*
G03*
X349500Y180750I-10000J0D01*
G01*
X458500Y109750D02*
G03*
X458500Y109750I-27500J0D01*
G01*
X317000Y114250D02*
G03*
X317000Y114250I-27500J0D01*
G01*
X2500Y76000D02*
X6500D01*
X4500Y74000D02*
Y78000D01*
X115000Y94500D02*
Y98500D01*
X113000Y96500D02*
X117000D01*
X307000Y28000D02*
Y34000D01*
X276000Y28000D02*
X307000D01*
X276000D02*
Y40000D01*
X307000D01*
Y34000D02*
Y40000D01*
X266000Y271500D02*
Y277500D01*
X235000Y271500D02*
X266000D01*
X235000D02*
Y283500D01*
X266000D01*
Y277500D02*
Y283500D01*
X429500Y186563D02*
X433500D01*
X431500Y184563D02*
Y188563D01*
X443000Y36937D02*
Y40937D01*
X441000Y38937D02*
X445000D01*
X310500Y163500D02*
X314500D01*
X312500Y161500D02*
Y165500D01*
X337500Y196500D02*
X341500D01*
X339500Y194500D02*
Y198500D01*
X429000Y143000D02*
X433000D01*
X431000Y141000D02*
Y145000D01*
X289500Y145500D02*
Y149500D01*
X287500Y147500D02*
X291500D01*
X8499Y101998D02*
X7499Y102998D01*
X5500D01*
X4500Y101998D01*
Y98000D01*
X5500Y97000D01*
X7499D01*
X8499Y98000D01*
X10498Y97000D02*
X12497D01*
X11498D01*
Y102998D01*
X10498Y101998D01*
X172502Y120499D02*
X171502Y119499D01*
Y117500D01*
X172502Y116500D01*
X176500D01*
X177500Y117500D01*
Y119499D01*
X176500Y120499D01*
X177500Y126497D02*
Y122498D01*
X173501Y126497D01*
X172502D01*
X171502Y125497D01*
Y123498D01*
X172502Y122498D01*
X86499Y90498D02*
X85499Y91498D01*
X83500D01*
X82500Y90498D01*
Y86500D01*
X83500Y85500D01*
X85499D01*
X86499Y86500D01*
X88498Y90498D02*
X89498Y91498D01*
X91497D01*
X92497Y90498D01*
Y89499D01*
X91497Y88499D01*
X90497D01*
X91497D01*
X92497Y87499D01*
Y86500D01*
X91497Y85500D01*
X89498D01*
X88498Y86500D01*
X117799Y122798D02*
X116799Y123798D01*
X114800D01*
X113800Y122798D01*
Y118800D01*
X114800Y117800D01*
X116799D01*
X117799Y118800D01*
X122797Y117800D02*
Y123798D01*
X119798Y120799D01*
X123797D01*
X173002Y89499D02*
X172002Y88499D01*
Y86500D01*
X173002Y85500D01*
X177000D01*
X178000Y86500D01*
Y88499D01*
X177000Y89499D01*
X172002Y95497D02*
Y91498D01*
X175001D01*
X174001Y93497D01*
Y94497D01*
X175001Y95497D01*
X177000D01*
X178000Y94497D01*
Y92498D01*
X177000Y91498D01*
X265499Y142998D02*
X264499Y143998D01*
X262500D01*
X261500Y142998D01*
Y139000D01*
X262500Y138000D01*
X264499D01*
X265499Y139000D01*
X271497Y143998D02*
X269497Y142998D01*
X267498Y140999D01*
Y139000D01*
X268498Y138000D01*
X270497D01*
X271497Y139000D01*
Y139999D01*
X270497Y140999D01*
X267498D01*
X282502Y69499D02*
X281502Y68499D01*
Y66500D01*
X282502Y65500D01*
X286500D01*
X287500Y66500D01*
Y68499D01*
X286500Y69499D01*
X281502Y71498D02*
Y75497D01*
X282502D01*
X286500Y71498D01*
X287500D01*
X261499Y84998D02*
X260499Y85998D01*
X258500D01*
X257500Y84998D01*
Y81000D01*
X258500Y80000D01*
X260499D01*
X261499Y81000D01*
X263498Y84998D02*
X264498Y85998D01*
X266497D01*
X267497Y84998D01*
Y83999D01*
X266497Y82999D01*
X267497Y81999D01*
Y81000D01*
X266497Y80000D01*
X264498D01*
X263498Y81000D01*
Y81999D01*
X264498Y82999D01*
X263498Y83999D01*
Y84998D01*
X264498Y82999D02*
X266497D01*
X421499Y76498D02*
X420499Y77498D01*
X418500D01*
X417500Y76498D01*
Y72500D01*
X418500Y71500D01*
X420499D01*
X421499Y72500D01*
X423498D02*
X424498Y71500D01*
X426497D01*
X427497Y72500D01*
Y76498D01*
X426497Y77498D01*
X424498D01*
X423498Y76498D01*
Y75499D01*
X424498Y74499D01*
X427497D01*
X399999Y137498D02*
X398999Y138498D01*
X397000D01*
X396000Y137498D01*
Y133500D01*
X397000Y132500D01*
X398999D01*
X399999Y133500D01*
X401998Y132500D02*
X403997D01*
X402998D01*
Y138498D01*
X401998Y137498D01*
X406996D02*
X407996Y138498D01*
X409996D01*
X410995Y137498D01*
Y133500D01*
X409996Y132500D01*
X407996D01*
X406996Y133500D01*
Y137498D01*
X408999Y184498D02*
X407999Y185498D01*
X406000D01*
X405000Y184498D01*
Y180500D01*
X406000Y179500D01*
X407999D01*
X408999Y180500D01*
X410998Y179500D02*
X412997D01*
X411998D01*
Y185498D01*
X410998Y184498D01*
X415996Y179500D02*
X417996D01*
X416996D01*
Y185498D01*
X415996Y184498D01*
X350999Y194498D02*
X349999Y195498D01*
X348000D01*
X347000Y194498D01*
Y190500D01*
X348000Y189500D01*
X349999D01*
X350999Y190500D01*
X352998Y189500D02*
X354997D01*
X353998D01*
Y195498D01*
X352998Y194498D01*
X361995Y189500D02*
X357996D01*
X361995Y193499D01*
Y194498D01*
X360996Y195498D01*
X358996D01*
X357996Y194498D01*
X279502Y159999D02*
X278502Y158999D01*
Y157000D01*
X279502Y156000D01*
X283500D01*
X284500Y157000D01*
Y158999D01*
X283500Y159999D01*
X284500Y161998D02*
Y163997D01*
Y162998D01*
X278502D01*
X279502Y161998D01*
Y166996D02*
X278502Y167996D01*
Y169995D01*
X279502Y170995D01*
X280501D01*
X281501Y169995D01*
Y168996D01*
Y169995D01*
X282501Y170995D01*
X283500D01*
X284500Y169995D01*
Y167996D01*
X283500Y166996D01*
X124002Y143500D02*
X130000D01*
Y146499D01*
X129000Y147499D01*
X125002D01*
X124002Y146499D01*
Y143500D01*
X130000Y149498D02*
Y151497D01*
Y150498D01*
X124002D01*
X125002Y149498D01*
X524998Y100950D02*
X519000D01*
Y97951D01*
X520000Y96951D01*
X523998D01*
X524998Y97951D01*
Y100950D01*
X519000Y90953D02*
Y94952D01*
X522999Y90953D01*
X523998D01*
X524998Y91953D01*
Y93952D01*
X523998Y94952D01*
X35000Y116498D02*
X36000Y117498D01*
X37999D01*
X38999Y116498D01*
Y115499D01*
X37999Y114499D01*
X38999Y113499D01*
Y112500D01*
X37999Y111500D01*
X36000D01*
X35000Y112500D01*
Y113499D01*
X36000Y114499D01*
X35000Y115499D01*
Y116498D01*
X36000Y114499D02*
X37999D01*
X40998Y111500D02*
Y115499D01*
X42997Y117498D01*
X44997Y115499D01*
Y111500D01*
Y114499D01*
X40998D01*
X17499Y117498D02*
X13500D01*
Y114499D01*
X15499D01*
X13500D01*
Y111500D01*
X19498D02*
X21497D01*
X20498D01*
Y117498D01*
X19498Y116498D01*
X39999Y201498D02*
X37999Y200498D01*
X36000Y198499D01*
Y196500D01*
X37000Y195500D01*
X38999D01*
X39999Y196500D01*
Y197499D01*
X38999Y198499D01*
X36000D01*
X41998Y195500D02*
Y199499D01*
X43997Y201498D01*
X45997Y199499D01*
Y195500D01*
Y198499D01*
X41998D01*
X17499Y201498D02*
X13500D01*
Y198499D01*
X15499D01*
X13500D01*
Y195500D01*
X23497D02*
X19498D01*
X23497Y199499D01*
Y200498D01*
X22497Y201498D01*
X20498D01*
X19498Y200498D01*
X36000Y254500D02*
X37999D01*
X37000D01*
Y260498D01*
X36000Y259498D01*
X40998Y254500D02*
Y258499D01*
X42998Y260498D01*
X44997Y258499D01*
Y254500D01*
Y257499D01*
X40998D01*
X17499Y260498D02*
X13500D01*
Y257499D01*
X15499D01*
X13500D01*
Y254500D01*
X19498Y259498D02*
X20498Y260498D01*
X22497D01*
X23497Y259498D01*
Y258499D01*
X22497Y257499D01*
X21497D01*
X22497D01*
X23497Y256499D01*
Y255500D01*
X22497Y254500D01*
X20498D01*
X19498Y255500D01*
X39999Y317998D02*
X36000D01*
Y314999D01*
X37999Y315999D01*
X38999D01*
X39999Y314999D01*
Y313000D01*
X38999Y312000D01*
X37000D01*
X36000Y313000D01*
X41998Y316998D02*
X42998Y317998D01*
X44997D01*
X45997Y316998D01*
Y313000D01*
X44997Y312000D01*
X42998D01*
X41998Y313000D01*
Y316998D01*
X47996D02*
X48996Y317998D01*
X50995D01*
X51995Y316998D01*
Y313000D01*
X50995Y312000D01*
X48996D01*
X47996Y313000D01*
Y316998D01*
X53994Y312000D02*
Y315999D01*
X54994D01*
X55993Y314999D01*
Y312000D01*
Y314999D01*
X56993Y315999D01*
X57993Y314999D01*
Y312000D01*
X59992D02*
Y315999D01*
X61992Y317998D01*
X63991Y315999D01*
Y312000D01*
Y314999D01*
X59992D01*
X17499Y317998D02*
X13500D01*
Y314999D01*
X15499D01*
X13500D01*
Y312000D01*
X22497D02*
Y317998D01*
X19498Y314999D01*
X23497D01*
X6599Y44198D02*
X4599D01*
X5599D01*
Y39200D01*
X4599Y38200D01*
X3600D01*
X2600Y39200D01*
X8598Y38200D02*
X10597D01*
X9598D01*
Y44198D01*
X8598Y43198D01*
X328750Y164748D02*
Y158750D01*
X332749D01*
X334748D02*
X336747D01*
X335748D01*
Y164748D01*
X334748Y163748D01*
X522500Y126498D02*
Y120500D01*
X526499D01*
X532497D02*
X528498D01*
X532497Y124499D01*
Y125498D01*
X531497Y126498D01*
X529498D01*
X528498Y125498D01*
X454002Y164500D02*
X460000D01*
Y168499D01*
X455002Y170498D02*
X454002Y171498D01*
Y173497D01*
X455002Y174497D01*
X456001D01*
X457001Y173497D01*
Y172497D01*
Y173497D01*
X458001Y174497D01*
X459000D01*
X460000Y173497D01*
Y171498D01*
X459000Y170498D01*
X271500Y42500D02*
Y48498D01*
X274499D01*
X275499Y47498D01*
Y45499D01*
X274499Y44499D01*
X271500D01*
X273499D02*
X275499Y42500D01*
X277498D02*
X279497D01*
X278498D01*
Y48498D01*
X277498Y47498D01*
X212000Y138498D02*
Y133500D01*
X213000Y132500D01*
X214999D01*
X215999Y133500D01*
Y138498D01*
X217998Y132500D02*
X219997D01*
X218998D01*
Y138498D01*
X217998Y137498D01*
X477000Y136998D02*
Y132000D01*
X478000Y131000D01*
X479999D01*
X480999Y132000D01*
Y136998D01*
X486997Y131000D02*
X482998D01*
X486997Y134999D01*
Y135998D01*
X485997Y136998D01*
X483998D01*
X482998Y135998D01*
X281700Y211298D02*
Y206300D01*
X282700Y205300D01*
X284699D01*
X285699Y206300D01*
Y211298D01*
X287698Y210298D02*
X288698Y211298D01*
X290697D01*
X291697Y210298D01*
Y209299D01*
X290697Y208299D01*
X289697D01*
X290697D01*
X291697Y207299D01*
Y206300D01*
X290697Y205300D01*
X288698D01*
X287698Y206300D01*
X52499Y19498D02*
X51499Y20498D01*
X49500D01*
X48500Y19498D01*
Y18499D01*
X49500Y17499D01*
X51499D01*
X52499Y16499D01*
Y15500D01*
X51499Y14500D01*
X49500D01*
X48500Y15500D01*
X54498Y20498D02*
Y14500D01*
X56497Y16499D01*
X58497Y14500D01*
Y20498D01*
X60496Y14500D02*
X62495D01*
X61496D01*
Y20498D01*
X60496Y19498D01*
X136500Y30998D02*
X140499D01*
X138499D01*
Y25000D01*
X142498D02*
Y30998D01*
X145497D01*
X146497Y29998D01*
Y27999D01*
X145497Y26999D01*
X142498D01*
X148496Y25000D02*
X150496D01*
X149496D01*
Y30998D01*
X148496Y29998D01*
X8500Y169498D02*
X12499D01*
X10499D01*
Y163500D01*
X14498D02*
Y169498D01*
X17497D01*
X18497Y168498D01*
Y166499D01*
X17497Y165499D01*
X14498D01*
X24495Y163500D02*
X20496D01*
X24495Y167499D01*
Y168498D01*
X23495Y169498D01*
X21496D01*
X20496Y168498D01*
X120550Y239348D02*
X124549D01*
X122549D01*
Y233350D01*
X126548D02*
Y239348D01*
X129547D01*
X130547Y238348D01*
Y236349D01*
X129547Y235349D01*
X126548D01*
X132546Y238348D02*
X133546Y239348D01*
X135545D01*
X136545Y238348D01*
Y237349D01*
X135545Y236349D01*
X134546D01*
X135545D01*
X136545Y235349D01*
Y234350D01*
X135545Y233350D01*
X133546D01*
X132546Y234350D01*
X119050Y298098D02*
X123049D01*
X121049D01*
Y292100D01*
X125048D02*
Y298098D01*
X128047D01*
X129047Y297098D01*
Y295099D01*
X128047Y294099D01*
X125048D01*
X134045Y292100D02*
Y298098D01*
X131046Y295099D01*
X135045D01*
X119050Y355848D02*
X123049D01*
X121049D01*
Y349850D01*
X125048D02*
Y355848D01*
X128047D01*
X129047Y354848D01*
Y352849D01*
X128047Y351849D01*
X125048D01*
X135045Y355848D02*
X131046D01*
Y352849D01*
X133045Y353849D01*
X134045D01*
X135045Y352849D01*
Y350850D01*
X134045Y349850D01*
X132046D01*
X131046Y350850D01*
X200999Y306998D02*
X199999Y307998D01*
X198000D01*
X197000Y306998D01*
Y303000D01*
X198000Y302000D01*
X199999D01*
X200999Y303000D01*
X205997Y307998D02*
X203998D01*
X202998Y306998D01*
Y303000D01*
X203998Y302000D01*
X205997D01*
X206997Y303000D01*
Y306998D01*
X205997Y307998D01*
X208996Y302000D02*
Y307998D01*
X212995Y302000D01*
Y307998D01*
X214994Y302000D02*
X216993D01*
X215994D01*
Y307998D01*
X214994Y306998D01*
X286499D02*
X285499Y307998D01*
X283500D01*
X282500Y306998D01*
Y303000D01*
X283500Y302000D01*
X285499D01*
X286499Y303000D01*
X291497Y307998D02*
X289498D01*
X288498Y306998D01*
Y303000D01*
X289498Y302000D01*
X291497D01*
X292497Y303000D01*
Y306998D01*
X291497Y307998D01*
X294496Y302000D02*
Y307998D01*
X298495Y302000D01*
Y307998D01*
X304493Y302000D02*
X300494D01*
X304493Y305999D01*
Y306998D01*
X303493Y307998D01*
X301494D01*
X300494Y306998D01*
X372499Y306498D02*
X371499Y307498D01*
X369500D01*
X368500Y306498D01*
Y302500D01*
X369500Y301500D01*
X371499D01*
X372499Y302500D01*
X377497Y307498D02*
X375498D01*
X374498Y306498D01*
Y302500D01*
X375498Y301500D01*
X377497D01*
X378497Y302500D01*
Y306498D01*
X377497Y307498D01*
X380496Y301500D02*
Y307498D01*
X384495Y301500D01*
Y307498D01*
X386494Y306498D02*
X387494Y307498D01*
X389493D01*
X390493Y306498D01*
Y305499D01*
X389493Y304499D01*
X388493D01*
X389493D01*
X390493Y303499D01*
Y302500D01*
X389493Y301500D01*
X387494D01*
X386494Y302500D01*
X458999Y306998D02*
X457999Y307998D01*
X456000D01*
X455000Y306998D01*
Y303000D01*
X456000Y302000D01*
X457999D01*
X458999Y303000D01*
X463997Y307998D02*
X461998D01*
X460998Y306998D01*
Y303000D01*
X461998Y302000D01*
X463997D01*
X464997Y303000D01*
Y306998D01*
X463997Y307998D01*
X466996Y302000D02*
Y307998D01*
X470995Y302000D01*
Y307998D01*
X475993Y302000D02*
Y307998D01*
X472994Y304999D01*
X476993D01*
X416300Y278198D02*
Y272200D01*
X419299D01*
X420299Y273200D01*
Y277198D01*
X419299Y278198D01*
X416300D01*
X422298Y277198D02*
X423298Y278198D01*
X425297D01*
X426297Y277198D01*
Y276199D01*
X425297Y275199D01*
X424297D01*
X425297D01*
X426297Y274199D01*
Y273200D01*
X425297Y272200D01*
X423298D01*
X422298Y273200D01*
X230500Y286500D02*
Y292498D01*
X233499D01*
X234499Y291498D01*
Y289499D01*
X233499Y288499D01*
X230500D01*
X232499D02*
X234499Y286500D01*
X240497D02*
X236498D01*
X240497Y290499D01*
Y291498D01*
X239497Y292498D01*
X237498D01*
X236498Y291498D01*
X198999Y297498D02*
Y296498D01*
X200999Y294499D01*
X202998Y296498D01*
Y297498D01*
X200999Y294499D02*
Y291500D01*
X204997Y297498D02*
Y291500D01*
X208996D01*
X210996Y297498D02*
Y291500D01*
X212995Y293499D01*
X214994Y291500D01*
Y297498D01*
X285499Y291500D02*
Y297498D01*
X288498D01*
X289498Y296498D01*
Y294499D01*
X288498Y293499D01*
X285499D01*
X287498D02*
X289498Y291500D01*
X295496Y297498D02*
X291497D01*
Y291500D01*
X295496D01*
X291497Y294499D02*
X293496D01*
X297495Y297498D02*
Y291500D01*
X300494D01*
X301494Y292500D01*
Y296498D01*
X300494Y297498D01*
X297495D01*
X510500Y185500D02*
X504502D01*
Y188499D01*
X505502Y189499D01*
X507501D01*
X508501Y188499D01*
Y185500D01*
X510500Y192498D02*
Y194497D01*
X509500Y195497D01*
X507501D01*
X506501Y194497D01*
Y192498D01*
X507501Y191498D01*
X509500D01*
X510500Y192498D01*
X506501Y197496D02*
X509500D01*
X510500Y198496D01*
X509500Y199495D01*
X510500Y200495D01*
X509500Y201495D01*
X506501D01*
X510500Y206493D02*
Y204494D01*
X509500Y203494D01*
X507501D01*
X506501Y204494D01*
Y206493D01*
X507501Y207493D01*
X508501D01*
Y203494D01*
X506501Y209492D02*
X510500D01*
X508501D01*
X507501Y210492D01*
X506501Y211492D01*
Y212491D01*
X505502Y225487D02*
X504502Y224487D01*
Y222488D01*
X505502Y221488D01*
X506501D01*
X507501Y222488D01*
Y224487D01*
X508501Y225487D01*
X509500D01*
X510500Y224487D01*
Y222488D01*
X509500Y221488D01*
X506501Y227486D02*
X509500D01*
X510500Y228486D01*
Y231485D01*
X506501D01*
X512499Y233485D02*
X506501D01*
Y236484D01*
X507501Y237483D01*
X509500D01*
X510500Y236484D01*
Y233485D01*
X512499Y239482D02*
X506501D01*
Y242482D01*
X507501Y243481D01*
X509500D01*
X510500Y242482D01*
Y239482D01*
Y245481D02*
Y247480D01*
Y246480D01*
X504502D01*
Y245481D01*
X506501Y250479D02*
X509500D01*
X510500Y251479D01*
Y254478D01*
X511500D01*
X512499Y253478D01*
Y252478D01*
X510500Y254478D02*
X506501D01*
X504502Y262475D02*
X510500D01*
Y265474D01*
X509500Y266474D01*
X508501D01*
X507501Y265474D01*
Y262475D01*
Y265474D01*
X506501Y266474D01*
X505502D01*
X504502Y265474D01*
Y262475D01*
X510500Y269473D02*
Y271472D01*
X509500Y272472D01*
X507501D01*
X506501Y271472D01*
Y269473D01*
X507501Y268473D01*
X509500D01*
X510500Y269473D01*
X506501Y275471D02*
Y277470D01*
X507501Y278470D01*
X510500D01*
Y275471D01*
X509500Y274471D01*
X508501Y275471D01*
Y278470D01*
X506501Y280469D02*
X510500D01*
X508501D01*
X507501Y281469D01*
X506501Y282469D01*
Y283468D01*
X504502Y290466D02*
X510500D01*
Y287467D01*
X509500Y286467D01*
X507501D01*
X506501Y287467D01*
Y290466D01*
X521500Y185500D02*
X515502D01*
Y188499D01*
X516502Y189499D01*
X518501D01*
X519501Y188499D01*
Y185500D01*
Y187499D02*
X521500Y189499D01*
Y194497D02*
Y192498D01*
X520501Y191498D01*
X518501D01*
X517501Y192498D01*
Y194497D01*
X518501Y195497D01*
X519501D01*
Y191498D01*
X521500Y197496D02*
Y200495D01*
X520501Y201495D01*
X519501Y200495D01*
Y198496D01*
X518501Y197496D01*
X517501Y198496D01*
Y201495D01*
X521500Y203494D02*
Y205493D01*
Y204494D01*
X517501D01*
Y203494D01*
X521500Y208493D02*
Y211492D01*
X520501Y212491D01*
X519501Y211492D01*
Y209492D01*
X518501Y208493D01*
X517501Y209492D01*
Y212491D01*
X516502Y215490D02*
X517501D01*
Y214491D01*
Y216490D01*
Y215490D01*
X520501D01*
X521500Y216490D01*
Y220489D02*
Y222488D01*
X520501Y223488D01*
X518501D01*
X517501Y222488D01*
Y220489D01*
X518501Y219489D01*
X520501D01*
X521500Y220489D01*
X517501Y225487D02*
X521500D01*
X519501D01*
X518501Y226487D01*
X517501Y227486D01*
Y228486D01*
X516502Y241482D02*
X515502Y240482D01*
Y238483D01*
X516502Y237483D01*
X517501D01*
X518501Y238483D01*
Y240482D01*
X519501Y241482D01*
X520501D01*
X521500Y240482D01*
Y238483D01*
X520501Y237483D01*
X521500Y244481D02*
Y246480D01*
X520501Y247480D01*
X518501D01*
X517501Y246480D01*
Y244481D01*
X518501Y243481D01*
X520501D01*
X521500Y244481D01*
X517501Y249479D02*
X521500D01*
X519501D01*
X518501Y250479D01*
X517501Y251479D01*
Y252478D01*
X516502Y256477D02*
X517501D01*
Y255477D01*
Y257477D01*
Y256477D01*
X520501D01*
X521500Y257477D01*
X517501Y261475D02*
Y263475D01*
X518501Y264474D01*
X521500D01*
Y261475D01*
X520501Y260476D01*
X519501Y261475D01*
Y264474D01*
X516502Y267474D02*
X517501D01*
Y266474D01*
Y268473D01*
Y267474D01*
X520501D01*
X521500Y268473D01*
Y271472D02*
Y273471D01*
Y272472D01*
X517501D01*
Y271472D01*
X521500Y277470D02*
Y279470D01*
X520501Y280469D01*
X518501D01*
X517501Y279470D01*
Y277470D01*
X518501Y276471D01*
X520501D01*
X521500Y277470D01*
Y282469D02*
X517501D01*
Y285468D01*
X518501Y286467D01*
X521500D01*
X516502Y298464D02*
X515502Y297464D01*
Y295464D01*
X516502Y294465D01*
X517501D01*
X518501Y295464D01*
Y297464D01*
X519501Y298464D01*
X520501D01*
X521500Y297464D01*
Y295464D01*
X520501Y294465D01*
X517501Y300463D02*
X520501D01*
X521500Y301463D01*
Y304462D01*
X522500D01*
X523500Y303462D01*
Y302462D01*
X521500Y304462D02*
X517501D01*
X521500Y306461D02*
Y309460D01*
X520501Y310460D01*
X519501Y309460D01*
Y307460D01*
X518501Y306461D01*
X517501Y307460D01*
Y310460D01*
X516502Y313459D02*
X517501D01*
Y312459D01*
Y314458D01*
Y313459D01*
X520501D01*
X521500Y314458D01*
Y320456D02*
Y318457D01*
X520501Y317457D01*
X518501D01*
X517501Y318457D01*
Y320456D01*
X518501Y321456D01*
X519501D01*
Y317457D01*
X521500Y323455D02*
X517501D01*
Y324455D01*
X518501Y325455D01*
X521500D01*
X518501D01*
X517501Y326454D01*
X518501Y327454D01*
X521500D01*
X528502Y185500D02*
X532500D01*
X534500Y187499D01*
X532500Y189499D01*
X528502D01*
X534500Y194497D02*
Y192498D01*
X533500Y191498D01*
X531501D01*
X530501Y192498D01*
Y194497D01*
X531501Y195497D01*
X532500D01*
Y191498D01*
X530501Y197496D02*
X534500D01*
X532500D01*
X531501Y198496D01*
X530501Y199495D01*
Y200495D01*
X534500Y203494D02*
Y206493D01*
X533500Y207493D01*
X532500Y206493D01*
Y204494D01*
X531501Y203494D01*
X530501Y204494D01*
Y207493D01*
X534500Y209492D02*
Y211492D01*
Y210492D01*
X530501D01*
Y209492D01*
X534500Y215490D02*
Y217490D01*
X533500Y218489D01*
X531501D01*
X530501Y217490D01*
Y215490D01*
X531501Y214491D01*
X533500D01*
X534500Y215490D01*
Y220489D02*
X530501D01*
Y223488D01*
X531501Y224487D01*
X534500D01*
Y232485D02*
Y234484D01*
Y233485D01*
X528502D01*
X529501Y232485D01*
X534500Y237483D02*
X533500D01*
Y238483D01*
X534500D01*
Y237483D01*
Y242482D02*
Y244481D01*
Y243481D01*
X528502D01*
X529501Y242482D01*
X534500Y247480D02*
X533500D01*
Y248480D01*
X534500D01*
Y247480D01*
Y256477D02*
Y252478D01*
X530501Y256477D01*
X529501D01*
X528502Y255477D01*
Y253478D01*
X529501Y252478D01*
Y264474D02*
X528502Y265474D01*
Y267474D01*
X529501Y268473D01*
X533500D01*
X534500Y267474D01*
Y265474D01*
X533500Y264474D01*
X529501D01*
X534500Y270473D02*
Y272472D01*
Y271472D01*
X528502D01*
X529501Y270473D01*
X531501Y275471D02*
Y279470D01*
X529501Y281469D02*
X528502Y282469D01*
Y284468D01*
X529501Y285468D01*
X533500D01*
X534500Y284468D01*
Y282469D01*
X533500Y281469D01*
X529501D01*
X528502Y287467D02*
Y291466D01*
X529501D01*
X533500Y287467D01*
X534500D01*
X531501Y293465D02*
Y297464D01*
X534500Y299463D02*
Y301463D01*
Y300463D01*
X528502D01*
X529501Y299463D01*
X528502Y308460D02*
X529501Y306461D01*
X531501Y304462D01*
X533500D01*
X534500Y305461D01*
Y307460D01*
X533500Y308460D01*
X532500D01*
X531501Y307460D01*
Y304462D01*
X457999Y291000D02*
Y296998D01*
X460998D01*
X461998Y295998D01*
Y293999D01*
X460998Y292999D01*
X457999D01*
X463997Y291000D02*
Y296998D01*
X466996D01*
X467996Y295998D01*
Y293999D01*
X466996Y292999D01*
X463997D01*
X465996D02*
X467996Y291000D01*
X469995D02*
Y296998D01*
X472994D01*
X473994Y295998D01*
Y293999D01*
X472994Y292999D01*
X469995D01*
X374498Y297498D02*
X372499D01*
X371499Y296498D01*
Y292500D01*
X372499Y291500D01*
X374498D01*
X375498Y292500D01*
Y296498D01*
X374498Y297498D01*
X377497Y291500D02*
Y297498D01*
X380496D01*
X381496Y296498D01*
Y294499D01*
X380496Y293499D01*
X377497D01*
X379496D02*
X381496Y291500D01*
X383495D02*
Y297498D01*
X387494Y291500D01*
Y297498D01*
X540502Y189499D02*
X539502Y188499D01*
Y186500D01*
X540502Y185500D01*
X541501D01*
X542501Y186500D01*
Y188499D01*
X543501Y189499D01*
X544500D01*
X545500Y188499D01*
Y186500D01*
X544500Y185500D01*
X545500Y191498D02*
X544500D01*
Y192498D01*
X545500D01*
Y191498D01*
X539502Y202495D02*
X545500D01*
X543501Y204494D01*
X545500Y206493D01*
X539502D01*
X545500Y211492D02*
Y209492D01*
X544500Y208493D01*
X542501D01*
X541501Y209492D01*
Y211492D01*
X542501Y212491D01*
X543501D01*
Y208493D01*
X545500Y214491D02*
Y217490D01*
X544500Y218489D01*
X543501Y217490D01*
Y215490D01*
X542501Y214491D01*
X541501Y215490D01*
Y218489D01*
X540502Y221488D02*
X541501D01*
Y220489D01*
Y222488D01*
Y221488D01*
X544500D01*
X545500Y222488D01*
X541501Y229486D02*
Y226487D01*
X542501Y225487D01*
X544500D01*
X545500Y226487D01*
Y229486D01*
Y232485D02*
Y234484D01*
X544500Y235484D01*
X542501D01*
X541501Y234484D01*
Y232485D01*
X542501Y231485D01*
X544500D01*
X545500Y232485D01*
X540502Y238483D02*
X541501D01*
Y237483D01*
Y239482D01*
Y238483D01*
X544500D01*
X545500Y239482D01*
X540502Y243481D02*
X541501D01*
Y242482D01*
Y244481D01*
Y243481D01*
X544500D01*
X545500Y244481D01*
Y257477D02*
X544500Y256477D01*
X545500Y255477D01*
Y254478D01*
X544500Y253478D01*
X543501D01*
X542501Y254478D01*
X541501Y253478D01*
X540502D01*
X539502Y254478D01*
Y255477D01*
X540502Y256477D01*
X541501D01*
X542501Y255477D01*
X543501Y256477D01*
X544500D01*
X542501Y257477D02*
X543501Y256477D01*
X542501Y254478D02*
Y255477D01*
X539502Y269473D02*
Y267474D01*
Y268473D01*
X544500D01*
X545500Y267474D01*
Y266474D01*
X544500Y265474D01*
X545500Y271472D02*
X544500D01*
Y272472D01*
X545500D01*
Y271472D01*
X539502Y282469D02*
X545500D01*
X543501Y284468D01*
X545500Y286467D01*
X539502D01*
X545500Y288467D02*
Y290466D01*
Y289466D01*
X541501D01*
Y288467D01*
X545500Y293465D02*
Y295464D01*
Y294465D01*
X539502D01*
Y293465D01*
X545500Y298463D02*
Y300463D01*
Y299463D01*
X539502D01*
Y298463D01*
X545500Y303462D02*
Y305461D01*
Y304462D01*
X541501D01*
Y303462D01*
Y309460D02*
Y311459D01*
X542501Y312459D01*
X545500D01*
Y309460D01*
X544500Y308460D01*
X543501Y309460D01*
Y312459D01*
X545500Y314458D02*
X541501D01*
Y315458D01*
X542501Y316458D01*
X545500D01*
X542501D01*
X541501Y317457D01*
X542501Y318457D01*
X545500D01*
Y320456D02*
Y323455D01*
X544500Y324455D01*
X543501Y323455D01*
Y321456D01*
X542501Y320456D01*
X541501Y321456D01*
Y324455D01*
X47000Y31500D02*
X47833D01*
X47416D01*
Y33999D01*
X47000Y33583D01*
D45*
X437233Y262748D02*
G03*
X437235Y252257I-10233J-5248D01*
G01*
D46*
X484500Y48500D02*
G03*
X479500Y48500I-2500J0D01*
G01*
X221898Y299695D02*
Y358750D01*
X193000Y299695D02*
X221898D01*
X193000Y358750D02*
X221898D01*
X193000Y299695D02*
Y358750D01*
X308064Y299695D02*
Y358750D01*
X279167Y299695D02*
X308064D01*
X279167Y358750D02*
X308064D01*
X279167Y299695D02*
Y358750D01*
X394231Y299695D02*
Y358750D01*
X365333Y299695D02*
X394231D01*
X365333Y358750D02*
X394231D01*
X365333Y299695D02*
Y358750D01*
X480398Y299695D02*
Y358750D01*
X451500Y299695D02*
X480398D01*
X451500Y358750D02*
X480398D01*
X451500Y299695D02*
Y358750D01*
X132225Y143000D02*
Y179500D01*
X152775D01*
Y143000D02*
Y179500D01*
X132225Y143000D02*
X152775D01*
X413000Y256500D02*
Y258500D01*
X412000Y257500D02*
X414000D01*
X437200Y252300D02*
Y262800D01*
X11200Y119600D02*
Y157400D01*
X99800Y119600D02*
Y157400D01*
X11200D02*
X99800D01*
X11200Y119600D02*
X99800D01*
X12700Y203600D02*
Y241400D01*
X101300Y203600D02*
Y241400D01*
X12700D02*
X101300D01*
X12700Y203600D02*
X101300D01*
X12700Y262350D02*
Y300150D01*
X101300Y262350D02*
Y300150D01*
X12700D02*
X101300D01*
X12700Y262350D02*
X101300D01*
Y320100D02*
Y357900D01*
X12700Y320100D02*
Y357900D01*
Y320100D02*
X101300D01*
X12700Y357900D02*
X101300D01*
X156000Y191400D02*
X254000D01*
X156000Y27600D02*
X254000D01*
X156000Y142950D02*
Y191400D01*
X254000Y142950D02*
Y191400D01*
X156000Y27600D02*
Y76050D01*
X254000Y27600D02*
Y76050D01*
X207950Y142950D02*
X254000D01*
X156000D02*
X202050D01*
X156000Y76050D02*
X202050D01*
X207950D02*
X254000D01*
X202050D02*
Y142950D01*
X207950Y76050D02*
Y142950D01*
X29500Y-23100D02*
Y-21000D01*
X17600Y-17900D02*
X21400D01*
X9500Y-23100D02*
Y-21000D01*
X37200Y-23100D02*
Y33600D01*
X1800D02*
X37200D01*
X1800Y-23100D02*
X37200D01*
X1800D02*
Y33600D01*
X21400Y-17900D02*
X24500Y-21000D01*
X29500D01*
X14500D02*
X17600Y-17900D01*
X9500Y-21000D02*
X14500D01*
X328000Y27500D02*
X393000D01*
Y155500D01*
X328000Y27500D02*
Y155500D01*
X393000D01*
X55937Y7500D02*
X71685Y15374D01*
X55937Y27185D02*
X71685Y35059D01*
X207950Y89750D02*
Y129250D01*
X224500D01*
X207950Y89750D02*
X224500D01*
Y129250D01*
X484500Y48500D02*
X489000D01*
X475000D02*
X479500D01*
X475000D02*
Y128500D01*
X489000D01*
Y48500D02*
Y128500D01*
X281000Y202000D02*
X321000D01*
X281000Y199500D02*
X321000D01*
X281000Y187000D02*
Y202000D01*
Y187000D02*
X283700Y184300D01*
X321000Y187000D02*
Y202000D01*
X318300Y184300D02*
X321000Y187000D01*
X283700Y184300D02*
X318300D01*
X257500Y76000D02*
X267500D01*
X257500Y55000D02*
Y76000D01*
X267500Y55000D02*
Y76000D01*
X257500Y55000D02*
X267500D01*
X507325Y101500D02*
X516675D01*
X507325Y82950D02*
X516675D01*
Y86500D02*
Y101500D01*
Y82950D02*
Y86500D01*
X507325Y82950D02*
Y101500D01*
X190000Y85000D02*
Y105000D01*
X180000Y85000D02*
X190000D01*
X180000D02*
Y105000D01*
X190000D01*
X180000Y136000D02*
X190000D01*
X180000Y116000D02*
Y136000D01*
Y116000D02*
X190000D01*
Y136000D01*
X115000Y104500D02*
X135000D01*
X115000D02*
Y114500D01*
X135000D01*
Y104500D02*
Y114500D01*
X269500Y64500D02*
X279500D01*
Y76000D01*
X269500D02*
X279500D01*
X269500Y64500D02*
Y76000D01*
D47*
X142500Y152000D02*
D03*
D48*
X512000Y87750D02*
D03*
M02*
