G04 Layer_Color=8388736*
%FSLAX25Y25*%
%MOIN*%
G70*
G01*
G75*
%ADD49C,0.10800*%
%ADD50R,0.08800X0.08800*%
%ADD51C,0.08800*%
%ADD52R,0.08800X0.08800*%
%ADD53C,0.09300*%
%ADD54C,0.06706*%
%ADD55R,0.10800X0.10800*%
%ADD56O,0.13800X0.10800*%
%ADD57C,0.07800*%
%ADD58O,0.08300X0.12800*%
%ADD59C,0.18300*%
G04:AMPARAMS|DCode=60|XSize=103mil|YSize=118mil|CornerRadius=27.75mil|HoleSize=0mil|Usage=FLASHONLY|Rotation=0.000|XOffset=0mil|YOffset=0mil|HoleType=Round|Shape=RoundedRectangle|*
%AMROUNDEDRECTD60*
21,1,0.10300,0.06250,0,0,0.0*
21,1,0.04750,0.11800,0,0,0.0*
1,1,0.05550,0.02375,-0.03125*
1,1,0.05550,-0.02375,-0.03125*
1,1,0.05550,-0.02375,0.03125*
1,1,0.05550,0.02375,0.03125*
%
%ADD60ROUNDEDRECTD60*%
%ADD61C,0.06800*%
%ADD62C,0.20800*%
%ADD63C,0.10300*%
%ADD64C,0.19800*%
%ADD65O,0.08800X0.07800*%
%ADD66R,0.10800X0.05800*%
%ADD67O,0.10800X0.05800*%
%ADD68O,0.08300X0.10300*%
%ADD69C,0.08300*%
%ADD70R,0.08300X0.08300*%
%ADD71O,0.10800X0.08800*%
%ADD72R,0.09300X0.09300*%
%ADD73R,0.07300X0.07300*%
%ADD74C,0.07300*%
%ADD75R,0.07300X0.07300*%
%ADD76R,0.07800X0.07800*%
%ADD77C,0.05800*%
D49*
X16000Y179500D02*
D03*
X127500Y222500D02*
D03*
X126000Y281250D02*
D03*
Y339000D02*
D03*
D50*
X25000Y76000D02*
D03*
D51*
X54500D02*
D03*
X115000Y46500D02*
D03*
X528000Y159185D02*
D03*
Y139500D02*
D03*
D52*
X115000Y76000D02*
D03*
D53*
X207449Y320955D02*
D03*
Y346545D02*
D03*
X293616Y320955D02*
D03*
Y346545D02*
D03*
X379782Y320955D02*
D03*
Y346545D02*
D03*
X465949Y320955D02*
D03*
Y346545D02*
D03*
X19500Y7200D02*
D03*
X38000Y19000D02*
D03*
X19500Y30800D02*
D03*
D54*
X218945Y355797D02*
D03*
X305112D02*
D03*
X391278D02*
D03*
X477445D02*
D03*
D55*
X142500Y131250D02*
D03*
D56*
Y191250D02*
D03*
D57*
X422200Y257500D02*
D03*
X431800D02*
D03*
X262500Y55000D02*
D03*
Y76000D02*
D03*
X185000Y85200D02*
D03*
Y105000D02*
D03*
Y136000D02*
D03*
Y116200D02*
D03*
X115000Y109500D02*
D03*
X135000D02*
D03*
X274500Y64500D02*
D03*
Y76000D02*
D03*
X431000Y101000D02*
D03*
X289500Y105500D02*
D03*
D58*
X104500Y138500D02*
D03*
X6500D02*
D03*
X106000Y222500D02*
D03*
X8000D02*
D03*
X106000Y281250D02*
D03*
X8000D02*
D03*
Y339000D02*
D03*
X106000D02*
D03*
D59*
X205000Y59500D02*
D03*
Y159500D02*
D03*
D60*
X387000Y91500D02*
D03*
X334000D02*
D03*
D61*
X316500Y34000D02*
D03*
X266500D02*
D03*
X275500Y277500D02*
D03*
X225500D02*
D03*
D62*
X94500Y15500D02*
D03*
X540000Y14000D02*
D03*
X538000Y345500D02*
D03*
X151500Y317000D02*
D03*
D63*
X52000Y27185D02*
D03*
X71685D02*
D03*
X52000Y7500D02*
D03*
X71685D02*
D03*
D64*
X143500Y12000D02*
D03*
D65*
X234100Y93825D02*
D03*
Y104275D02*
D03*
Y125175D02*
D03*
Y114725D02*
D03*
X217450Y109500D02*
D03*
Y119950D02*
D03*
Y99050D02*
D03*
D66*
X497000Y53500D02*
D03*
D67*
Y63500D02*
D03*
Y73500D02*
D03*
Y83500D02*
D03*
Y93500D02*
D03*
Y103500D02*
D03*
Y113500D02*
D03*
Y123500D02*
D03*
X467000Y53500D02*
D03*
Y63500D02*
D03*
Y73500D02*
D03*
Y83500D02*
D03*
Y93500D02*
D03*
Y103500D02*
D03*
Y113500D02*
D03*
Y123500D02*
D03*
D68*
X291000Y192000D02*
D03*
X301000D02*
D03*
X311000D02*
D03*
D69*
X431500Y157000D02*
D03*
X443000Y68500D02*
D03*
X473315Y169000D02*
D03*
X493000D02*
D03*
D70*
X431500Y172000D02*
D03*
X443000Y53500D02*
D03*
D71*
X512000Y110975D02*
D03*
D72*
Y73475D02*
D03*
D73*
X301000Y163500D02*
D03*
D74*
X292500D02*
D03*
X339500Y176500D02*
D03*
D75*
Y185000D02*
D03*
D76*
X431000Y118500D02*
D03*
X289500Y123000D02*
D03*
D77*
X301000Y212500D02*
D03*
X154500Y267000D02*
D03*
X174000D02*
D03*
X161000D02*
D03*
X167500D02*
D03*
M02*
