M48
;Layer_Color=9474304
;FILE_FORMAT=2:5
INCH,LZ
;TYPE=PLATED
T1F00S00C0.02500
T2F00S00C0.02800
T3F00S00C0.02900
T4F00S00C0.03500
T5F00S00C0.04000
T6F00S00C0.04600
T7F00S00C0.04724
T8F00S00C0.04921
T9F00S00C0.05200
T10F00S00C0.06100
T11F00S00C0.06700
T12F00S00C0.11000
T13F00S00C0.13500
T14F00S00C0.15000
;TYPE=NON_PLATED
T15F00S00C0.05906
%
T01
X0467Y00535
X0497
Y00635
Y00735
Y00835
Y00935
Y01035
Y01135
Y01235
X0467
Y01135
Y01035
Y00935
Y00835
Y00735
Y00635
X02745Y00645
Y0076
X0135Y01095
X0115
T02
X01545Y0267
X0161
X01675
X0174
X0301Y02125
T03
X02665Y0034
X03165
X0301Y01635
X02925
X03395Y01765
Y0185
X0185Y0136
Y01162
Y0105
Y00852
X02255Y02775
X02755
X04222Y02575
X04318
T04
X02625Y0055
X0443Y00535
Y00685
X0431Y0101
Y01185
X04315Y0157
Y0172
X02895Y0123
Y01055
X02625Y0076
T05
X0115Y00465
X0473315Y0169
X0493
X02341Y0125175
Y0114725
Y0104275
Y0093825
X021745Y009905
Y01095
Y011995
X0115Y0076
X00545
X0025
T06
X0512Y0073475
Y0110975
X0311Y0192
X0301
X0291
T07
X0528Y01395
Y0159185
T08
X0207449Y0320955
Y0346545
X0293616
Y0320955
X0379782
Y0346545
X0465949
Y0320955
T09
X00195Y00072
Y00308
X0038Y0019
X01045Y01385
X00065
X0008Y02225
Y028125
Y0339
X0106
Y028125
Y02225
T10
X0052Y00075
Y0027185
X0071685
Y00075
T11
X0387Y00915
X0334
X01425Y013125
Y019125
T12
X0205Y00595
Y01595
T13
X00945Y00155
X054Y0014
X01515Y0317
X0538Y03455
T14
X01435Y0012
T15
X0218945Y0355797
X0305112
X0391278
X0477445
M30
