G04 Layer_Physical_Order=2*
G04 Layer_Color=16711680*
%FSLAX25Y25*%
%MOIN*%
G70*
G01*
G75*
%ADD11C,0.08200*%
%ADD13C,0.05500*%
%ADD14C,0.03500*%
%ADD15R,0.08000X0.08000*%
%ADD16C,0.08000*%
%ADD17R,0.08000X0.08000*%
%ADD18C,0.08500*%
%ADD19C,0.05906*%
%ADD20R,0.10000X0.10000*%
%ADD21O,0.13000X0.10000*%
%ADD22C,0.07000*%
%ADD23O,0.07500X0.12000*%
%ADD24C,0.17500*%
G04:AMPARAMS|DCode=25|XSize=95mil|YSize=110mil|CornerRadius=23.75mil|HoleSize=0mil|Usage=FLASHONLY|Rotation=0.000|XOffset=0mil|YOffset=0mil|HoleType=Round|Shape=RoundedRectangle|*
%AMROUNDEDRECTD25*
21,1,0.09500,0.06250,0,0,0.0*
21,1,0.04750,0.11000,0,0,0.0*
1,1,0.04750,0.02375,-0.03125*
1,1,0.04750,-0.02375,-0.03125*
1,1,0.04750,-0.02375,0.03125*
1,1,0.04750,0.02375,0.03125*
%
%ADD25ROUNDEDRECTD25*%
%ADD26C,0.06000*%
%ADD27C,0.20000*%
%ADD28C,0.09500*%
%ADD29C,0.19000*%
%ADD30O,0.08000X0.07000*%
%ADD31R,0.10000X0.05000*%
%ADD32O,0.10000X0.05000*%
%ADD33O,0.07500X0.09500*%
%ADD34C,0.07500*%
%ADD35R,0.07500X0.07500*%
%ADD36O,0.10000X0.08000*%
%ADD37R,0.08500X0.08500*%
%ADD38R,0.06500X0.06500*%
%ADD39C,0.06500*%
%ADD40R,0.06500X0.06500*%
%ADD41R,0.07000X0.07000*%
%ADD42C,0.05000*%
%ADD43C,0.02000*%
G36*
X552184Y18555D02*
X550184Y18157D01*
X549831Y19009D01*
X548927Y20486D01*
X547802Y21802D01*
X546486Y22927D01*
X545009Y23831D01*
X543410Y24494D01*
X541726Y24898D01*
X541000Y24955D01*
Y14000D01*
X540000D01*
Y13000D01*
X529045D01*
X529102Y12274D01*
X529506Y10590D01*
X530169Y8991D01*
X531073Y7514D01*
X532198Y6198D01*
X533514Y5073D01*
X533652Y2643D01*
X533402Y2316D01*
X151408D01*
X150670Y4316D01*
X150948Y4552D01*
X152021Y5809D01*
X152884Y7218D01*
X153517Y8745D01*
X153903Y10352D01*
X153954Y11000D01*
X133046D01*
X133097Y10352D01*
X133483Y8745D01*
X134116Y7218D01*
X134979Y5809D01*
X136052Y4552D01*
X136330Y4316D01*
X135592Y2316D01*
X77215D01*
X76237Y4316D01*
X76533Y4701D01*
X77092Y6051D01*
X77283Y7500D01*
X77092Y8949D01*
X76533Y10299D01*
X75643Y11458D01*
X74484Y12348D01*
X73134Y12907D01*
X71685Y13098D01*
X70236Y12907D01*
X68886Y12348D01*
X67727Y11458D01*
X66837Y10299D01*
X66278Y8949D01*
X66087Y7500D01*
X66278Y6051D01*
X66837Y4701D01*
X67133Y4316D01*
X66155Y2316D01*
X57530D01*
X56552Y4316D01*
X56848Y4701D01*
X57407Y6051D01*
X57598Y7500D01*
X57407Y8949D01*
X56848Y10299D01*
X55958Y11458D01*
X54799Y12348D01*
X53449Y12907D01*
X52000Y13098D01*
X50551Y12907D01*
X49201Y12348D01*
X48042Y11458D01*
X47152Y10299D01*
X46593Y8949D01*
X46402Y7500D01*
X46593Y6051D01*
X47152Y4701D01*
X47448Y4316D01*
X46470Y2316D01*
X24891D01*
X23904Y4316D01*
X24086Y4552D01*
X24615Y5830D01*
X24664Y6200D01*
X14336D01*
X14385Y5830D01*
X14914Y4552D01*
X15096Y4316D01*
X14109Y2316D01*
X2316D01*
Y131205D01*
X4205Y132276D01*
X5312Y131817D01*
X6500Y131661D01*
X7688Y131817D01*
X8795Y132276D01*
X9745Y133005D01*
X10474Y133955D01*
X10933Y135062D01*
X11089Y136250D01*
Y140750D01*
X10933Y141938D01*
X10474Y143045D01*
X9745Y143995D01*
X8795Y144724D01*
X7688Y145183D01*
X6500Y145339D01*
X5312Y145183D01*
X4205Y144724D01*
X2316Y145795D01*
Y217052D01*
X2746Y217279D01*
X4316Y217577D01*
X4755Y217005D01*
X5705Y216276D01*
X6812Y215817D01*
X8000Y215661D01*
X9188Y215817D01*
X10295Y216276D01*
X11245Y217005D01*
X11974Y217955D01*
X12433Y219062D01*
X12589Y220250D01*
Y224750D01*
X12433Y225938D01*
X11974Y227045D01*
X11245Y227995D01*
X10295Y228724D01*
X9188Y229183D01*
X8000Y229339D01*
X6812Y229183D01*
X5705Y228724D01*
X4755Y227995D01*
X4316Y227423D01*
X2746Y227721D01*
X2316Y227948D01*
Y275802D01*
X2746Y276029D01*
X4316Y276327D01*
X4755Y275755D01*
X5705Y275026D01*
X6812Y274567D01*
X8000Y274411D01*
X9188Y274567D01*
X10295Y275026D01*
X11245Y275755D01*
X11974Y276705D01*
X12433Y277812D01*
X12589Y279000D01*
Y283500D01*
X12433Y284688D01*
X11974Y285795D01*
X11245Y286745D01*
X10295Y287474D01*
X9188Y287933D01*
X8000Y288089D01*
X6812Y287933D01*
X5705Y287474D01*
X4755Y286745D01*
X4316Y286173D01*
X2746Y286471D01*
X2316Y286698D01*
Y333552D01*
X2746Y333779D01*
X4316Y334077D01*
X4755Y333505D01*
X5705Y332776D01*
X6812Y332317D01*
X8000Y332161D01*
X9188Y332317D01*
X10295Y332776D01*
X11245Y333505D01*
X11974Y334455D01*
X12433Y335562D01*
X12589Y336750D01*
Y341250D01*
X12433Y342438D01*
X11974Y343545D01*
X11245Y344495D01*
X10295Y345224D01*
X9188Y345683D01*
X8000Y345839D01*
X6812Y345683D01*
X5705Y345224D01*
X4755Y344495D01*
X4316Y343923D01*
X2746Y344221D01*
X2316Y344448D01*
Y359184D01*
X214293D01*
X214798Y358635D01*
X215458Y357184D01*
X215289Y356777D01*
X215160Y355797D01*
X215289Y354818D01*
X215667Y353905D01*
X216268Y353121D01*
X217052Y352519D01*
X217965Y352141D01*
X218945Y352012D01*
X219924Y352141D01*
X220837Y352519D01*
X221621Y353121D01*
X222223Y353905D01*
X222601Y354818D01*
X222730Y355797D01*
X222601Y356777D01*
X222432Y357184D01*
X223092Y358635D01*
X223597Y359184D01*
X300459D01*
X300965Y358635D01*
X301624Y357184D01*
X301455Y356777D01*
X301326Y355797D01*
X301455Y354818D01*
X301834Y353905D01*
X302435Y353121D01*
X303219Y352519D01*
X304132Y352141D01*
X305112Y352012D01*
X306091Y352141D01*
X307004Y352519D01*
X307788Y353121D01*
X308390Y353905D01*
X308768Y354818D01*
X308897Y355797D01*
X308768Y356777D01*
X308599Y357184D01*
X309258Y358635D01*
X309764Y359184D01*
X386626D01*
X387132Y358635D01*
X387791Y357184D01*
X387622Y356777D01*
X387493Y355797D01*
X387622Y354818D01*
X388000Y353905D01*
X388602Y353121D01*
X389386Y352519D01*
X390299Y352141D01*
X391278Y352012D01*
X392258Y352141D01*
X393171Y352519D01*
X393955Y353121D01*
X394556Y353905D01*
X394934Y354818D01*
X395063Y355797D01*
X394934Y356777D01*
X394766Y357184D01*
X395425Y358635D01*
X395930Y359184D01*
X472793D01*
X473298Y358635D01*
X473957Y357184D01*
X473789Y356777D01*
X473660Y355797D01*
X473789Y354818D01*
X474167Y353905D01*
X474768Y353121D01*
X475552Y352519D01*
X476465Y352141D01*
X477445Y352012D01*
X478425Y352141D01*
X479337Y352519D01*
X480121Y353121D01*
X480723Y353905D01*
X481101Y354818D01*
X481230Y355797D01*
X481101Y356777D01*
X480932Y357184D01*
X481592Y358635D01*
X482097Y359184D01*
X552184D01*
Y18555D01*
D02*
G37*
%LPC*%
G36*
X466000Y82500D02*
X461126D01*
X461443Y81735D01*
X462004Y81004D01*
X462735Y80443D01*
X463586Y80090D01*
X464500Y79970D01*
X466000D01*
Y82500D01*
D02*
G37*
G36*
X472874D02*
X468000D01*
Y79970D01*
X469500D01*
X470414Y80090D01*
X471265Y80443D01*
X471996Y81004D01*
X472557Y81735D01*
X472874Y82500D01*
D02*
G37*
G36*
X55500Y80911D02*
Y77000D01*
X59412D01*
X59371Y77305D01*
X58868Y78522D01*
X58066Y79566D01*
X57022Y80367D01*
X55805Y80871D01*
X55500Y80911D01*
D02*
G37*
G36*
X274500Y80337D02*
X273377Y80189D01*
X272331Y79756D01*
X271433Y79067D01*
X270744Y78169D01*
X270311Y77122D01*
X270163Y76000D01*
X270311Y74878D01*
X270744Y73831D01*
X271433Y72933D01*
X272331Y72244D01*
X273377Y71811D01*
X274500Y71663D01*
X275623Y71811D01*
X276669Y72244D01*
X277567Y72933D01*
X278256Y73831D01*
X278689Y74878D01*
X278837Y76000D01*
X278689Y77122D01*
X278256Y78169D01*
X277567Y79067D01*
X276669Y79756D01*
X275623Y80189D01*
X274500Y80337D01*
D02*
G37*
G36*
X53500Y80911D02*
X53195Y80871D01*
X51978Y80367D01*
X50934Y79566D01*
X50133Y78522D01*
X49629Y77305D01*
X49589Y77000D01*
X53500D01*
Y80911D01*
D02*
G37*
G36*
X389375Y97827D02*
X384625D01*
X383796Y97718D01*
X383024Y97398D01*
X382361Y96889D01*
X381852Y96226D01*
X381532Y95454D01*
X381423Y94625D01*
Y88375D01*
X381532Y87546D01*
X381852Y86774D01*
X382361Y86111D01*
X383024Y85602D01*
X383796Y85282D01*
X384625Y85173D01*
X389375D01*
X390204Y85282D01*
X390976Y85602D01*
X391639Y86111D01*
X392148Y86774D01*
X392468Y87546D01*
X392577Y88375D01*
Y94625D01*
X392468Y95454D01*
X392148Y96226D01*
X391639Y96889D01*
X390976Y97398D01*
X390204Y97718D01*
X389375Y97827D01*
D02*
G37*
G36*
X234600Y129512D02*
X233600D01*
X232477Y129364D01*
X231431Y128931D01*
X230533Y128242D01*
X229844Y127344D01*
X229411Y126297D01*
X229263Y125175D01*
X229411Y124053D01*
X229844Y123006D01*
X230533Y122108D01*
X231431Y121419D01*
X232477Y120986D01*
X232683Y120959D01*
Y118941D01*
X232477Y118914D01*
X231431Y118481D01*
X230533Y117792D01*
X229844Y116894D01*
X229411Y115848D01*
X229263Y114725D01*
X229411Y113602D01*
X229844Y112556D01*
X230533Y111658D01*
X231431Y110969D01*
X232477Y110536D01*
X232683Y110509D01*
Y108491D01*
X232477Y108464D01*
X231431Y108031D01*
X230533Y107342D01*
X229844Y106444D01*
X229411Y105397D01*
X229263Y104275D01*
X229411Y103153D01*
X229844Y102106D01*
X230533Y101208D01*
X231431Y100519D01*
X232477Y100086D01*
X232683Y100059D01*
Y98041D01*
X232477Y98014D01*
X231431Y97581D01*
X230533Y96892D01*
X229844Y95994D01*
X229411Y94947D01*
X229263Y93825D01*
X229411Y92703D01*
X229844Y91656D01*
X230516Y90781D01*
X230502Y90672D01*
X229825Y88781D01*
X187397D01*
X187169Y88956D01*
X186123Y89389D01*
X185000Y89537D01*
X183878Y89389D01*
X182831Y88956D01*
X181933Y88267D01*
X181244Y87369D01*
X180811Y86322D01*
X180663Y85200D01*
X180811Y84078D01*
X181244Y83031D01*
X181933Y82133D01*
X182831Y81444D01*
X183878Y81011D01*
X185000Y80863D01*
X186123Y81011D01*
X187169Y81444D01*
X187397Y81619D01*
X240300D01*
X241227Y81741D01*
X242090Y82099D01*
X242832Y82668D01*
X253032Y92868D01*
X253601Y93610D01*
X253959Y94473D01*
X254081Y95400D01*
Y114500D01*
X253959Y115427D01*
X253601Y116290D01*
X253032Y117032D01*
X242357Y127707D01*
X241615Y128276D01*
X240752Y128634D01*
X239825Y128756D01*
X236997D01*
X236769Y128931D01*
X235722Y129364D01*
X234600Y129512D01*
D02*
G37*
G36*
X469500Y87030D02*
X468000D01*
Y84500D01*
X472874D01*
X472557Y85265D01*
X471996Y85996D01*
X471265Y86557D01*
X470414Y86910D01*
X469500Y87030D01*
D02*
G37*
G36*
X499500Y86829D02*
X494500D01*
X493639Y86715D01*
X492836Y86383D01*
X492146Y85854D01*
X491617Y85164D01*
X491285Y84361D01*
X491172Y83500D01*
X491285Y82639D01*
X491617Y81836D01*
X492146Y81146D01*
X492836Y80617D01*
X493639Y80285D01*
X494500Y80172D01*
X499500D01*
X500361Y80285D01*
X501164Y80617D01*
X501854Y81146D01*
X502383Y81836D01*
X502715Y82639D01*
X502829Y83500D01*
X502715Y84361D01*
X502383Y85164D01*
X501854Y85854D01*
X501164Y86383D01*
X500361Y86715D01*
X499500Y86829D01*
D02*
G37*
G36*
X466000Y87030D02*
X464500D01*
X463586Y86910D01*
X462735Y86557D01*
X462004Y85996D01*
X461443Y85265D01*
X461126Y84500D01*
X466000D01*
Y87030D01*
D02*
G37*
G36*
X469500Y76828D02*
X464500D01*
X463638Y76715D01*
X462836Y76383D01*
X462146Y75854D01*
X461618Y75164D01*
X461285Y74361D01*
X461171Y73500D01*
X461285Y72638D01*
X461618Y71836D01*
X462146Y71146D01*
X462836Y70617D01*
X463638Y70285D01*
X464500Y70171D01*
X469500D01*
X470362Y70285D01*
X471164Y70617D01*
X471854Y71146D01*
X472382Y71836D01*
X472715Y72638D01*
X472828Y73500D01*
X472715Y74361D01*
X472382Y75164D01*
X471854Y75854D01*
X471164Y76383D01*
X470362Y76715D01*
X469500Y76828D01*
D02*
G37*
G36*
X499500D02*
X494500D01*
X493639Y76715D01*
X492836Y76383D01*
X492146Y75854D01*
X491617Y75164D01*
X491285Y74361D01*
X491172Y73500D01*
X491285Y72638D01*
X491617Y71836D01*
X492146Y71146D01*
X492836Y70617D01*
X493639Y70285D01*
X494500Y70171D01*
X499500D01*
X500361Y70285D01*
X501164Y70617D01*
X501854Y71146D01*
X502383Y71836D01*
X502715Y72638D01*
X502829Y73500D01*
X502715Y74361D01*
X502383Y75164D01*
X501854Y75854D01*
X501164Y76383D01*
X500361Y76715D01*
X499500Y76828D01*
D02*
G37*
G36*
X444000Y73159D02*
Y69500D01*
X447659D01*
X447628Y69740D01*
X447149Y70895D01*
X446388Y71888D01*
X445396Y72649D01*
X444240Y73128D01*
X444000Y73159D01*
D02*
G37*
G36*
X517050Y78525D02*
X506950D01*
Y68425D01*
X517050D01*
Y78525D01*
D02*
G37*
G36*
X442000Y73159D02*
X441760Y73128D01*
X440604Y72649D01*
X439612Y71888D01*
X438851Y70895D01*
X438372Y69740D01*
X438341Y69500D01*
X442000D01*
Y73159D01*
D02*
G37*
G36*
X119800Y80800D02*
X110200D01*
Y71200D01*
X119800D01*
Y80800D01*
D02*
G37*
G36*
X262500Y80337D02*
X261378Y80189D01*
X260331Y79756D01*
X259433Y79067D01*
X258744Y78169D01*
X258311Y77122D01*
X258163Y76000D01*
X258311Y74878D01*
X258744Y73831D01*
X259433Y72933D01*
X260331Y72244D01*
X261378Y71811D01*
X262500Y71663D01*
X263622Y71811D01*
X264669Y72244D01*
X265567Y72933D01*
X266256Y73831D01*
X266689Y74878D01*
X266837Y76000D01*
X266689Y77122D01*
X266256Y78169D01*
X265567Y79067D01*
X264669Y79756D01*
X263622Y80189D01*
X262500Y80337D01*
D02*
G37*
G36*
X29800Y80800D02*
X20200D01*
Y71200D01*
X29800D01*
Y80800D01*
D02*
G37*
G36*
X53500Y75000D02*
X49589D01*
X49629Y74695D01*
X50133Y73478D01*
X50934Y72434D01*
X51978Y71632D01*
X53195Y71129D01*
X53500Y71088D01*
Y75000D01*
D02*
G37*
G36*
X59412D02*
X55500D01*
Y71088D01*
X55805Y71129D01*
X57022Y71632D01*
X58066Y72434D01*
X58868Y73478D01*
X59371Y74695D01*
X59412Y75000D01*
D02*
G37*
G36*
X189407Y104000D02*
X186000D01*
Y100593D01*
X186175Y100616D01*
X187269Y101069D01*
X188209Y101791D01*
X188931Y102731D01*
X189384Y103825D01*
X189407Y104000D01*
D02*
G37*
G36*
X288500Y104500D02*
X285093D01*
X285116Y104325D01*
X285569Y103231D01*
X286291Y102291D01*
X287231Y101569D01*
X288325Y101116D01*
X288500Y101093D01*
Y104500D01*
D02*
G37*
G36*
X184000Y104000D02*
X180593D01*
X180616Y103825D01*
X181069Y102731D01*
X181791Y101791D01*
X182731Y101069D01*
X183825Y100616D01*
X184000Y100593D01*
Y104000D01*
D02*
G37*
G36*
X469500Y106828D02*
X464500D01*
X463638Y106715D01*
X462836Y106383D01*
X462146Y105854D01*
X461618Y105164D01*
X461285Y104361D01*
X461171Y103500D01*
X461285Y102638D01*
X461618Y101836D01*
X462146Y101146D01*
X462836Y100617D01*
X463638Y100285D01*
X464500Y100171D01*
X469500D01*
X470362Y100285D01*
X471164Y100617D01*
X471854Y101146D01*
X472382Y101836D01*
X472715Y102638D01*
X472828Y103500D01*
X472715Y104361D01*
X472382Y105164D01*
X471854Y105854D01*
X471164Y106383D01*
X470362Y106715D01*
X469500Y106828D01*
D02*
G37*
G36*
X499500D02*
X494500D01*
X493639Y106715D01*
X492836Y106383D01*
X492146Y105854D01*
X491617Y105164D01*
X491285Y104361D01*
X491172Y103500D01*
X491285Y102638D01*
X491617Y101836D01*
X492146Y101146D01*
X492836Y100617D01*
X493639Y100285D01*
X494500Y100171D01*
X499500D01*
X500361Y100285D01*
X501164Y100617D01*
X501854Y101146D01*
X502383Y101836D01*
X502715Y102638D01*
X502829Y103500D01*
X502715Y104361D01*
X502383Y105164D01*
X501854Y105854D01*
X501164Y106383D01*
X500361Y106715D01*
X499500Y106828D01*
D02*
G37*
G36*
X134000Y108500D02*
X130593D01*
X130616Y108325D01*
X131069Y107231D01*
X131791Y106291D01*
X132731Y105569D01*
X133825Y105116D01*
X134000Y105093D01*
Y108500D01*
D02*
G37*
G36*
X139407D02*
X136000D01*
Y105093D01*
X136175Y105116D01*
X137269Y105569D01*
X138209Y106291D01*
X138931Y107231D01*
X139384Y108325D01*
X139407Y108500D01*
D02*
G37*
G36*
X432000Y105407D02*
Y102000D01*
X435407D01*
X435384Y102175D01*
X434931Y103269D01*
X434209Y104209D01*
X433269Y104931D01*
X432175Y105384D01*
X432000Y105407D01*
D02*
G37*
G36*
X293907Y104500D02*
X290500D01*
Y101093D01*
X290675Y101116D01*
X291769Y101569D01*
X292709Y102291D01*
X293431Y103231D01*
X293884Y104325D01*
X293907Y104500D01*
D02*
G37*
G36*
X430000Y105407D02*
X429825Y105384D01*
X428731Y104931D01*
X427791Y104209D01*
X427069Y103269D01*
X426616Y102175D01*
X426593Y102000D01*
X430000D01*
Y105407D01*
D02*
G37*
G36*
X502874Y92500D02*
X498000D01*
Y89970D01*
X499500D01*
X500414Y90090D01*
X501265Y90443D01*
X501996Y91004D01*
X502557Y91735D01*
X502874Y92500D01*
D02*
G37*
G36*
X466000Y97030D02*
X464500D01*
X463586Y96910D01*
X462735Y96557D01*
X462004Y95996D01*
X461443Y95265D01*
X461126Y94500D01*
X466000D01*
Y97030D01*
D02*
G37*
G36*
X496000Y92500D02*
X491126D01*
X491443Y91735D01*
X492004Y91004D01*
X492735Y90443D01*
X493586Y90090D01*
X494500Y89970D01*
X496000D01*
Y92500D01*
D02*
G37*
G36*
X466000D02*
X461126D01*
X461443Y91735D01*
X462004Y91004D01*
X462735Y90443D01*
X463586Y90090D01*
X464500Y89970D01*
X466000D01*
Y92500D01*
D02*
G37*
G36*
X472874D02*
X468000D01*
Y89970D01*
X469500D01*
X470414Y90090D01*
X471265Y90443D01*
X471996Y91004D01*
X472557Y91735D01*
X472874Y92500D01*
D02*
G37*
G36*
X430000Y100000D02*
X426593D01*
X426616Y99825D01*
X427069Y98731D01*
X427791Y97791D01*
X428731Y97069D01*
X429825Y96616D01*
X430000Y96593D01*
Y100000D01*
D02*
G37*
G36*
X435407D02*
X432000D01*
Y96593D01*
X432175Y96616D01*
X433269Y97069D01*
X434209Y97791D01*
X434931Y98731D01*
X435384Y99825D01*
X435407Y100000D01*
D02*
G37*
G36*
X499500Y97030D02*
X498000D01*
Y94500D01*
X502874D01*
X502557Y95265D01*
X501996Y95996D01*
X501265Y96557D01*
X500414Y96910D01*
X499500Y97030D01*
D02*
G37*
G36*
X469500D02*
X468000D01*
Y94500D01*
X472874D01*
X472557Y95265D01*
X471996Y95996D01*
X471265Y96557D01*
X470414Y96910D01*
X469500Y97030D01*
D02*
G37*
G36*
X496000D02*
X494500D01*
X493586Y96910D01*
X492735Y96557D01*
X492004Y95996D01*
X491443Y95265D01*
X491126Y94500D01*
X496000D01*
Y97030D01*
D02*
G37*
G36*
X275500Y68907D02*
Y65500D01*
X278907D01*
X278884Y65675D01*
X278431Y66769D01*
X277709Y67709D01*
X276769Y68431D01*
X275675Y68884D01*
X275500Y68907D01*
D02*
G37*
G36*
X52000Y32783D02*
X50551Y32592D01*
X49201Y32033D01*
X48042Y31143D01*
X47152Y29984D01*
X46593Y28634D01*
X46402Y27185D01*
X46593Y25736D01*
X47152Y24386D01*
X48042Y23227D01*
X49201Y22337D01*
X50551Y21778D01*
X52000Y21587D01*
X53449Y21778D01*
X54799Y22337D01*
X55958Y23227D01*
X56848Y24386D01*
X57407Y25736D01*
X57598Y27185D01*
X57407Y28634D01*
X56848Y29984D01*
X55958Y31143D01*
X54799Y32033D01*
X53449Y32592D01*
X52000Y32783D01*
D02*
G37*
G36*
X71685D02*
X70236Y32592D01*
X68886Y32033D01*
X67727Y31143D01*
X66837Y29984D01*
X66278Y28634D01*
X66087Y27185D01*
X66278Y25736D01*
X66837Y24386D01*
X67727Y23227D01*
X68886Y22337D01*
X70236Y21778D01*
X71685Y21587D01*
X73134Y21778D01*
X74484Y22337D01*
X75643Y23227D01*
X76533Y24386D01*
X77092Y25736D01*
X77283Y27185D01*
X77092Y28634D01*
X76533Y29984D01*
X75643Y31143D01*
X74484Y32033D01*
X73134Y32592D01*
X71685Y32783D01*
D02*
G37*
G36*
X39000Y24164D02*
Y20000D01*
X43164D01*
X43115Y20370D01*
X42586Y21648D01*
X41744Y22744D01*
X40648Y23586D01*
X39371Y24115D01*
X39000Y24164D01*
D02*
G37*
G36*
X95500Y26455D02*
Y16500D01*
X105455D01*
X105398Y17226D01*
X104994Y18910D01*
X104331Y20509D01*
X103427Y21986D01*
X102302Y23302D01*
X100986Y24427D01*
X99509Y25331D01*
X97910Y25994D01*
X96226Y26398D01*
X95500Y26455D01*
D02*
G37*
G36*
X37000Y24164D02*
X36630Y24115D01*
X35352Y23586D01*
X34256Y22744D01*
X33414Y21648D01*
X32885Y20370D01*
X32836Y20000D01*
X37000D01*
Y24164D01*
D02*
G37*
G36*
X266500Y37833D02*
X265508Y37702D01*
X264584Y37319D01*
X263790Y36710D01*
X263181Y35916D01*
X262798Y34992D01*
X262667Y34000D01*
X262798Y33008D01*
X263181Y32084D01*
X263790Y31290D01*
X264584Y30681D01*
X265508Y30298D01*
X266500Y30167D01*
X267492Y30298D01*
X268416Y30681D01*
X269210Y31290D01*
X269819Y32084D01*
X270202Y33008D01*
X270333Y34000D01*
X270202Y34992D01*
X269819Y35916D01*
X269210Y36710D01*
X268416Y37319D01*
X267492Y37702D01*
X266500Y37833D01*
D02*
G37*
G36*
X315500Y37903D02*
X315456Y37897D01*
X314483Y37494D01*
X313647Y36853D01*
X313006Y36017D01*
X312603Y35044D01*
X312597Y35000D01*
X315500D01*
Y37903D01*
D02*
G37*
G36*
X320403Y33000D02*
X317500D01*
Y30097D01*
X317544Y30103D01*
X318517Y30506D01*
X319353Y31147D01*
X319994Y31983D01*
X320397Y32956D01*
X320403Y33000D01*
D02*
G37*
G36*
X19500Y35894D02*
X18182Y35720D01*
X16953Y35211D01*
X15898Y34402D01*
X15089Y33347D01*
X14580Y32118D01*
X14406Y30800D01*
X14580Y29482D01*
X15089Y28253D01*
X15898Y27198D01*
X16953Y26389D01*
X18182Y25880D01*
X19500Y25706D01*
X20818Y25880D01*
X22047Y26389D01*
X23102Y27198D01*
X23911Y28253D01*
X24420Y29482D01*
X24594Y30800D01*
X24420Y32118D01*
X23911Y33347D01*
X23102Y34402D01*
X22047Y35211D01*
X20818Y35720D01*
X19500Y35894D01*
D02*
G37*
G36*
X315500Y33000D02*
X312597D01*
X312603Y32956D01*
X313006Y31983D01*
X313647Y31147D01*
X314483Y30506D01*
X315456Y30103D01*
X315500Y30097D01*
Y33000D01*
D02*
G37*
G36*
X20500Y12364D02*
Y8200D01*
X24664D01*
X24615Y8570D01*
X24086Y9848D01*
X23244Y10944D01*
X22148Y11786D01*
X20870Y12315D01*
X20500Y12364D01*
D02*
G37*
G36*
X142500Y22454D02*
X141852Y22403D01*
X140245Y22017D01*
X138718Y21384D01*
X137309Y20521D01*
X136052Y19448D01*
X134979Y18191D01*
X134116Y16782D01*
X133483Y15255D01*
X133097Y13648D01*
X133046Y13000D01*
X142500D01*
Y22454D01*
D02*
G37*
G36*
X18500Y12364D02*
X18129Y12315D01*
X16852Y11786D01*
X15756Y10944D01*
X14914Y9848D01*
X14385Y8570D01*
X14336Y8200D01*
X18500D01*
Y12364D01*
D02*
G37*
G36*
X93500Y14500D02*
X83545D01*
X83602Y13774D01*
X84006Y12090D01*
X84669Y10491D01*
X85573Y9014D01*
X86698Y7698D01*
X88014Y6573D01*
X89491Y5669D01*
X91090Y5006D01*
X92774Y4602D01*
X93500Y4545D01*
Y14500D01*
D02*
G37*
G36*
X105455D02*
X95500D01*
Y4545D01*
X96226Y4602D01*
X97910Y5006D01*
X99509Y5669D01*
X100986Y6573D01*
X102302Y7698D01*
X103427Y9014D01*
X104331Y10491D01*
X104994Y12090D01*
X105398Y13774D01*
X105455Y14500D01*
D02*
G37*
G36*
X539000Y24955D02*
X538274Y24898D01*
X536590Y24494D01*
X534991Y23831D01*
X533514Y22927D01*
X532198Y21802D01*
X531073Y20486D01*
X530169Y19009D01*
X529506Y17410D01*
X529102Y15726D01*
X529045Y15000D01*
X539000D01*
Y24955D01*
D02*
G37*
G36*
X93500Y26455D02*
X92774Y26398D01*
X91090Y25994D01*
X89491Y25331D01*
X88014Y24427D01*
X86698Y23302D01*
X85573Y21986D01*
X84669Y20509D01*
X84006Y18910D01*
X83602Y17226D01*
X83545Y16500D01*
X93500D01*
Y26455D01*
D02*
G37*
G36*
X43164Y18000D02*
X39000D01*
Y13836D01*
X39371Y13885D01*
X40648Y14414D01*
X41744Y15256D01*
X42586Y16352D01*
X43115Y17629D01*
X43164Y18000D01*
D02*
G37*
G36*
X144500Y22454D02*
Y13000D01*
X153954D01*
X153903Y13648D01*
X153517Y15255D01*
X152884Y16782D01*
X152021Y18191D01*
X150948Y19448D01*
X149691Y20521D01*
X148282Y21384D01*
X146755Y22017D01*
X145148Y22403D01*
X144500Y22454D01*
D02*
G37*
G36*
X37000Y18000D02*
X32836D01*
X32885Y17629D01*
X33414Y16352D01*
X34256Y15256D01*
X35352Y14414D01*
X36630Y13885D01*
X37000Y13836D01*
Y18000D01*
D02*
G37*
G36*
X469500Y66829D02*
X464500D01*
X463638Y66715D01*
X462836Y66383D01*
X462146Y65854D01*
X461618Y65164D01*
X461285Y64362D01*
X461171Y63500D01*
X461285Y62638D01*
X461618Y61836D01*
X462146Y61146D01*
X462836Y60617D01*
X463638Y60285D01*
X464500Y60172D01*
X469500D01*
X470362Y60285D01*
X471164Y60617D01*
X471854Y61146D01*
X472382Y61836D01*
X472715Y62638D01*
X472828Y63500D01*
X472715Y64362D01*
X472382Y65164D01*
X471854Y65854D01*
X471164Y66383D01*
X470362Y66715D01*
X469500Y66829D01*
D02*
G37*
G36*
X499500D02*
X494500D01*
X493639Y66715D01*
X492836Y66383D01*
X492146Y65854D01*
X491617Y65164D01*
X491285Y64362D01*
X491172Y63500D01*
X491285Y62638D01*
X491617Y61836D01*
X492146Y61146D01*
X492836Y60617D01*
X493639Y60285D01*
X494500Y60172D01*
X499500D01*
X500361Y60285D01*
X501164Y60617D01*
X501854Y61146D01*
X502383Y61836D01*
X502715Y62638D01*
X502829Y63500D01*
X502715Y64362D01*
X502383Y65164D01*
X501854Y65854D01*
X501164Y66383D01*
X500361Y66715D01*
X499500Y66829D01*
D02*
G37*
G36*
X278907Y63500D02*
X275500D01*
Y60093D01*
X275675Y60116D01*
X276769Y60569D01*
X277709Y61291D01*
X278431Y62231D01*
X278884Y63325D01*
X278907Y63500D01*
D02*
G37*
G36*
X262500Y59337D02*
X261378Y59189D01*
X260331Y58756D01*
X259433Y58067D01*
X258744Y57169D01*
X258311Y56122D01*
X258163Y55000D01*
X258311Y53878D01*
X258744Y52831D01*
X259433Y51933D01*
X260331Y51244D01*
X261378Y50811D01*
X262500Y50663D01*
X263622Y50811D01*
X264669Y51244D01*
X265567Y51933D01*
X266256Y52831D01*
X266689Y53878D01*
X266837Y55000D01*
X266689Y56122D01*
X266256Y57169D01*
X265567Y58067D01*
X264669Y58756D01*
X263622Y59189D01*
X262500Y59337D01*
D02*
G37*
G36*
X273500Y63500D02*
X270093D01*
X270116Y63325D01*
X270569Y62231D01*
X271291Y61291D01*
X272231Y60569D01*
X273325Y60116D01*
X273500Y60093D01*
Y63500D01*
D02*
G37*
G36*
X447659Y67500D02*
X444000D01*
Y63841D01*
X444240Y63872D01*
X445396Y64351D01*
X446388Y65112D01*
X447149Y66105D01*
X447628Y67260D01*
X447659Y67500D01*
D02*
G37*
G36*
X273500Y68907D02*
X273325Y68884D01*
X272231Y68431D01*
X271291Y67709D01*
X270569Y66769D01*
X270116Y65675D01*
X270093Y65500D01*
X273500D01*
Y68907D01*
D02*
G37*
G36*
X442000Y67500D02*
X438341D01*
X438372Y67260D01*
X438851Y66105D01*
X439612Y65112D01*
X440604Y64351D01*
X441760Y63872D01*
X442000Y63841D01*
Y67500D01*
D02*
G37*
G36*
X204000Y69199D02*
X203089Y69109D01*
X201251Y68551D01*
X199557Y67646D01*
X198072Y66428D01*
X196854Y64943D01*
X195949Y63249D01*
X195391Y61411D01*
X195301Y60500D01*
X204000D01*
Y69199D01*
D02*
G37*
G36*
X206000D02*
Y60500D01*
X214699D01*
X214609Y61411D01*
X214051Y63249D01*
X213146Y64943D01*
X211928Y66428D01*
X210443Y67646D01*
X208749Y68551D01*
X206911Y69109D01*
X206000Y69199D01*
D02*
G37*
G36*
X114000Y51411D02*
X113695Y51371D01*
X112478Y50867D01*
X111434Y50066D01*
X110633Y49022D01*
X110129Y47805D01*
X110089Y47500D01*
X114000D01*
Y51411D01*
D02*
G37*
G36*
X116000D02*
Y47500D01*
X119912D01*
X119871Y47805D01*
X119368Y49022D01*
X118566Y50066D01*
X117522Y50867D01*
X116305Y51371D01*
X116000Y51411D01*
D02*
G37*
G36*
X119912Y45500D02*
X116000D01*
Y41589D01*
X116305Y41629D01*
X117522Y42132D01*
X118566Y42934D01*
X119368Y43978D01*
X119871Y45195D01*
X119912Y45500D01*
D02*
G37*
G36*
X317500Y37903D02*
Y35000D01*
X320403D01*
X320397Y35044D01*
X319994Y36017D01*
X319353Y36853D01*
X318517Y37494D01*
X317544Y37897D01*
X317500Y37903D01*
D02*
G37*
G36*
X114000Y45500D02*
X110089D01*
X110129Y45195D01*
X110633Y43978D01*
X111434Y42934D01*
X112478Y42132D01*
X113695Y41629D01*
X114000Y41589D01*
Y45500D01*
D02*
G37*
G36*
X469500Y56828D02*
X464500D01*
X463638Y56715D01*
X462836Y56383D01*
X462146Y55854D01*
X461618Y55164D01*
X461285Y54361D01*
X461171Y53500D01*
X461285Y52639D01*
X461618Y51836D01*
X462146Y51146D01*
X462836Y50617D01*
X463638Y50285D01*
X464500Y50172D01*
X469500D01*
X470362Y50285D01*
X471164Y50617D01*
X471854Y51146D01*
X472382Y51836D01*
X472715Y52639D01*
X472828Y53500D01*
X472715Y54361D01*
X472382Y55164D01*
X471854Y55854D01*
X471164Y56383D01*
X470362Y56715D01*
X469500Y56828D01*
D02*
G37*
G36*
X502800Y56800D02*
X491200D01*
Y50200D01*
X502800D01*
Y56800D01*
D02*
G37*
G36*
X214699Y58500D02*
X206000D01*
Y49801D01*
X206911Y49891D01*
X208749Y50449D01*
X210443Y51354D01*
X211928Y52572D01*
X213146Y54057D01*
X214051Y55751D01*
X214609Y57589D01*
X214699Y58500D01*
D02*
G37*
G36*
X447550Y58050D02*
X438450D01*
Y48950D01*
X447550D01*
Y58050D01*
D02*
G37*
G36*
X204000Y58500D02*
X195301D01*
X195391Y57589D01*
X195949Y55751D01*
X196854Y54057D01*
X198072Y52572D01*
X199557Y51354D01*
X201251Y50449D01*
X203089Y49891D01*
X204000Y49801D01*
Y58500D01*
D02*
G37*
G36*
X115000Y113837D02*
X113877Y113689D01*
X112831Y113256D01*
X111933Y112567D01*
X111244Y111669D01*
X110811Y110623D01*
X110663Y109500D01*
X110811Y108378D01*
X111244Y107331D01*
X111933Y106433D01*
X112831Y105744D01*
X113877Y105311D01*
X115000Y105163D01*
X116122Y105311D01*
X117169Y105744D01*
X118067Y106433D01*
X118756Y107331D01*
X119189Y108378D01*
X119337Y109500D01*
X119189Y110623D01*
X118756Y111669D01*
X118067Y112567D01*
X117169Y113256D01*
X116122Y113689D01*
X115000Y113837D01*
D02*
G37*
G36*
X162455Y316000D02*
X152500D01*
Y306045D01*
X153226Y306102D01*
X154910Y306506D01*
X156509Y307169D01*
X157986Y308073D01*
X159302Y309198D01*
X160427Y310514D01*
X161331Y311991D01*
X161994Y313590D01*
X162398Y315274D01*
X162455Y316000D01*
D02*
G37*
G36*
X293616Y326048D02*
X292297Y325875D01*
X291069Y325366D01*
X290014Y324556D01*
X289204Y323501D01*
X288696Y322273D01*
X288522Y320955D01*
X288696Y319636D01*
X289204Y318408D01*
X290014Y317353D01*
X291069Y316544D01*
X292297Y316035D01*
X293616Y315861D01*
X294934Y316035D01*
X296162Y316544D01*
X297217Y317353D01*
X298027Y318408D01*
X298535Y319636D01*
X298709Y320955D01*
X298535Y322273D01*
X298027Y323501D01*
X297217Y324556D01*
X296162Y325366D01*
X294934Y325875D01*
X293616Y326048D01*
D02*
G37*
G36*
X150500Y316000D02*
X140545D01*
X140602Y315274D01*
X141006Y313590D01*
X141669Y311991D01*
X142573Y310514D01*
X143698Y309198D01*
X145014Y308073D01*
X146491Y307169D01*
X148090Y306506D01*
X149774Y306102D01*
X150500Y306045D01*
Y316000D01*
D02*
G37*
G36*
X275500Y281333D02*
X274508Y281202D01*
X273584Y280819D01*
X272790Y280210D01*
X272181Y279416D01*
X271798Y278492D01*
X271667Y277500D01*
X271798Y276508D01*
X272181Y275584D01*
X272790Y274790D01*
X273584Y274181D01*
X274508Y273798D01*
X275500Y273667D01*
X276492Y273798D01*
X277416Y274181D01*
X278210Y274790D01*
X278819Y275584D01*
X279202Y276508D01*
X279333Y277500D01*
X279202Y278492D01*
X278819Y279416D01*
X278210Y280210D01*
X277416Y280819D01*
X276492Y281202D01*
X275500Y281333D01*
D02*
G37*
G36*
X106000Y288089D02*
X104812Y287933D01*
X103705Y287474D01*
X102755Y286745D01*
X102026Y285795D01*
X101567Y284688D01*
X101411Y283500D01*
Y279000D01*
X101567Y277812D01*
X102026Y276705D01*
X102755Y275755D01*
X103705Y275026D01*
X104812Y274567D01*
X106000Y274411D01*
X107188Y274567D01*
X108295Y275026D01*
X109245Y275755D01*
X109974Y276705D01*
X110433Y277812D01*
X110589Y279000D01*
Y283500D01*
X110433Y284688D01*
X109974Y285795D01*
X109245Y286745D01*
X108295Y287474D01*
X107188Y287933D01*
X106000Y288089D01*
D02*
G37*
G36*
X152500Y327955D02*
Y318000D01*
X162455D01*
X162398Y318726D01*
X161994Y320410D01*
X161331Y322009D01*
X160427Y323486D01*
X159302Y324802D01*
X157986Y325927D01*
X156509Y326831D01*
X154910Y327494D01*
X153226Y327898D01*
X152500Y327955D01*
D02*
G37*
G36*
X106000Y345839D02*
X104812Y345683D01*
X103705Y345224D01*
X102755Y344495D01*
X102026Y343545D01*
X101567Y342438D01*
X101411Y341250D01*
Y336750D01*
X101567Y335562D01*
X102026Y334455D01*
X102755Y333505D01*
X103705Y332776D01*
X104812Y332317D01*
X106000Y332161D01*
X107188Y332317D01*
X108295Y332776D01*
X109245Y333505D01*
X109974Y334455D01*
X110433Y335562D01*
X110589Y336750D01*
Y341250D01*
X110433Y342438D01*
X109974Y343545D01*
X109245Y344495D01*
X108295Y345224D01*
X107188Y345683D01*
X106000Y345839D01*
D02*
G37*
G36*
X150500Y327955D02*
X149774Y327898D01*
X148090Y327494D01*
X146491Y326831D01*
X145014Y325927D01*
X143698Y324802D01*
X142573Y323486D01*
X141669Y322009D01*
X141006Y320410D01*
X140602Y318726D01*
X140545Y318000D01*
X150500D01*
Y327955D01*
D02*
G37*
G36*
X379782Y326048D02*
X378464Y325875D01*
X377235Y325366D01*
X376180Y324556D01*
X375371Y323501D01*
X374862Y322273D01*
X374689Y320955D01*
X374862Y319636D01*
X375371Y318408D01*
X376180Y317353D01*
X377235Y316544D01*
X378464Y316035D01*
X379782Y315861D01*
X381101Y316035D01*
X382329Y316544D01*
X383384Y317353D01*
X384193Y318408D01*
X384702Y319636D01*
X384876Y320955D01*
X384702Y322273D01*
X384193Y323501D01*
X383384Y324556D01*
X382329Y325366D01*
X381101Y325875D01*
X379782Y326048D01*
D02*
G37*
G36*
X465949D02*
X464631Y325875D01*
X463402Y325366D01*
X462347Y324556D01*
X461538Y323501D01*
X461029Y322273D01*
X460855Y320955D01*
X461029Y319636D01*
X461538Y318408D01*
X462347Y317353D01*
X463402Y316544D01*
X464631Y316035D01*
X465949Y315861D01*
X467267Y316035D01*
X468496Y316544D01*
X469551Y317353D01*
X470360Y318408D01*
X470869Y319636D01*
X471042Y320955D01*
X470869Y322273D01*
X470360Y323501D01*
X469551Y324556D01*
X468496Y325366D01*
X467267Y325875D01*
X465949Y326048D01*
D02*
G37*
G36*
X144000Y197279D02*
X143500D01*
Y192250D01*
X149931D01*
X149913Y192426D01*
X149570Y193557D01*
X149013Y194599D01*
X148263Y195513D01*
X147350Y196263D01*
X146307Y196820D01*
X145176Y197163D01*
X144000Y197279D01*
D02*
G37*
G36*
X290000Y197659D02*
X289760Y197628D01*
X288604Y197149D01*
X287612Y196388D01*
X286851Y195396D01*
X286372Y194240D01*
X286209Y193000D01*
X290000D01*
Y197659D01*
D02*
G37*
G36*
X141500Y197279D02*
X141000D01*
X139824Y197163D01*
X138693Y196820D01*
X137651Y196263D01*
X136737Y195513D01*
X135987Y194599D01*
X135430Y193557D01*
X135087Y192426D01*
X135070Y192250D01*
X141500D01*
Y197279D01*
D02*
G37*
G36*
X149931Y190250D02*
X143500D01*
Y185221D01*
X144000D01*
X145176Y185337D01*
X146307Y185680D01*
X147350Y186237D01*
X148263Y186987D01*
X149013Y187900D01*
X149570Y188943D01*
X149913Y190074D01*
X149931Y190250D01*
D02*
G37*
G36*
X290000Y191000D02*
X286209D01*
X286372Y189760D01*
X286851Y188604D01*
X287612Y187612D01*
X288604Y186851D01*
X289760Y186372D01*
X290000Y186341D01*
Y191000D01*
D02*
G37*
G36*
X432800Y261907D02*
Y258500D01*
X436207D01*
X436184Y258675D01*
X435731Y259769D01*
X435009Y260709D01*
X434069Y261431D01*
X432975Y261884D01*
X432800Y261907D01*
D02*
G37*
G36*
X430800D02*
X430625Y261884D01*
X429531Y261431D01*
X428591Y260709D01*
X428006Y259947D01*
X426980Y259808D01*
X425766Y259917D01*
X425267Y260567D01*
X424368Y261256D01*
X423322Y261689D01*
X422200Y261837D01*
X421077Y261689D01*
X420031Y261256D01*
X419133Y260567D01*
X418444Y259669D01*
X418011Y258623D01*
X417863Y257500D01*
X418011Y256378D01*
X418444Y255331D01*
X419133Y254433D01*
X420031Y253744D01*
X421077Y253311D01*
X422200Y253163D01*
X423322Y253311D01*
X424368Y253744D01*
X425267Y254433D01*
X425766Y255083D01*
X426980Y255192D01*
X428006Y255053D01*
X428591Y254291D01*
X429531Y253569D01*
X430625Y253116D01*
X430800Y253093D01*
Y257500D01*
Y261907D01*
D02*
G37*
G36*
X436207Y256500D02*
X432800D01*
Y253093D01*
X432975Y253116D01*
X434069Y253569D01*
X435009Y254291D01*
X435731Y255231D01*
X436184Y256325D01*
X436207Y256500D01*
D02*
G37*
G36*
X301000Y215828D02*
X300138Y215715D01*
X299336Y215383D01*
X298646Y214854D01*
X298117Y214164D01*
X297785Y213362D01*
X297672Y212500D01*
X297785Y211638D01*
X298117Y210836D01*
X298400Y210468D01*
Y196740D01*
X297755Y196245D01*
X297240Y195574D01*
X295926Y195462D01*
X294989Y195604D01*
X294388Y196388D01*
X293395Y197149D01*
X292240Y197628D01*
X292000Y197659D01*
Y192000D01*
Y186341D01*
X292240Y186372D01*
X293395Y186851D01*
X294388Y187612D01*
X294989Y188396D01*
X295926Y188538D01*
X297240Y188426D01*
X297755Y187755D01*
X298705Y187026D01*
X299812Y186567D01*
X301000Y186411D01*
X302188Y186567D01*
X303295Y187026D01*
X304245Y187755D01*
X304901Y188609D01*
X305557Y188705D01*
X306442D01*
X307099Y188609D01*
X307755Y187755D01*
X308705Y187026D01*
X309812Y186567D01*
X311000Y186411D01*
X312188Y186567D01*
X313295Y187026D01*
X314245Y187755D01*
X314974Y188705D01*
X315433Y189812D01*
X315589Y191000D01*
Y193000D01*
X315433Y194188D01*
X314974Y195295D01*
X314245Y196245D01*
X313295Y196974D01*
X312188Y197433D01*
X311000Y197589D01*
X309812Y197433D01*
X308705Y196974D01*
X307755Y196245D01*
X307099Y195391D01*
X306442Y195295D01*
X305557D01*
X304901Y195391D01*
X304245Y196245D01*
X303600Y196740D01*
Y210468D01*
X303883Y210836D01*
X304215Y211638D01*
X304328Y212500D01*
X304215Y213362D01*
X303883Y214164D01*
X303354Y214854D01*
X302664Y215383D01*
X301862Y215715D01*
X301000Y215828D01*
D02*
G37*
G36*
X174000Y270581D02*
X133500D01*
X132573Y270459D01*
X131710Y270101D01*
X130968Y269532D01*
X103468Y242032D01*
X102899Y241290D01*
X102541Y240427D01*
X102419Y239500D01*
Y227558D01*
X102026Y227045D01*
X101567Y225938D01*
X101411Y224750D01*
Y220250D01*
X101567Y219062D01*
X102026Y217955D01*
X102755Y217005D01*
X103705Y216276D01*
X104812Y215817D01*
X106000Y215661D01*
X107188Y215817D01*
X108295Y216276D01*
X109245Y217005D01*
X109974Y217955D01*
X110433Y219062D01*
X110589Y220250D01*
Y224750D01*
X110433Y225938D01*
X109974Y227045D01*
X109581Y227558D01*
Y238017D01*
X134983Y263419D01*
X174000D01*
X174927Y263541D01*
X175790Y263899D01*
X176532Y264468D01*
X177101Y265210D01*
X177459Y266073D01*
X177581Y267000D01*
X177459Y267927D01*
X177101Y268790D01*
X176532Y269532D01*
X175790Y270101D01*
X174927Y270459D01*
X174000Y270581D01*
D02*
G37*
G36*
X208449Y351709D02*
Y347545D01*
X212613D01*
X212564Y347916D01*
X212035Y349193D01*
X211193Y350290D01*
X210097Y351131D01*
X208819Y351660D01*
X208449Y351709D01*
D02*
G37*
G36*
X292616D02*
X292245Y351660D01*
X290968Y351131D01*
X289871Y350290D01*
X289030Y349193D01*
X288501Y347916D01*
X288452Y347545D01*
X292616D01*
Y351709D01*
D02*
G37*
G36*
X206449D02*
X206078Y351660D01*
X204801Y351131D01*
X203705Y350290D01*
X202863Y349193D01*
X202334Y347916D01*
X202285Y347545D01*
X206449D01*
Y351709D01*
D02*
G37*
G36*
X537000Y356455D02*
X536274Y356398D01*
X534590Y355994D01*
X532991Y355331D01*
X531514Y354427D01*
X530198Y353302D01*
X529073Y351986D01*
X528169Y350509D01*
X527506Y348910D01*
X527102Y347226D01*
X527045Y346500D01*
X537000D01*
Y356455D01*
D02*
G37*
G36*
X539000D02*
Y346500D01*
X548955D01*
X548898Y347226D01*
X548494Y348910D01*
X547831Y350509D01*
X546927Y351986D01*
X545802Y353302D01*
X544486Y354427D01*
X543009Y355331D01*
X541410Y355994D01*
X539726Y356398D01*
X539000Y356455D01*
D02*
G37*
G36*
X464949Y351709D02*
X464578Y351660D01*
X463301Y351131D01*
X462205Y350290D01*
X461363Y349193D01*
X460834Y347916D01*
X460785Y347545D01*
X464949D01*
Y351709D01*
D02*
G37*
G36*
X466949D02*
Y347545D01*
X471112D01*
X471064Y347916D01*
X470535Y349193D01*
X469693Y350290D01*
X468597Y351131D01*
X467319Y351660D01*
X466949Y351709D01*
D02*
G37*
G36*
X380782D02*
Y347545D01*
X384946D01*
X384897Y347916D01*
X384368Y349193D01*
X383526Y350290D01*
X382430Y351131D01*
X381153Y351660D01*
X380782Y351709D01*
D02*
G37*
G36*
X294616D02*
Y347545D01*
X298779D01*
X298730Y347916D01*
X298201Y349193D01*
X297360Y350290D01*
X296263Y351131D01*
X294986Y351660D01*
X294616Y351709D01*
D02*
G37*
G36*
X378782D02*
X378412Y351660D01*
X377134Y351131D01*
X376038Y350290D01*
X375196Y349193D01*
X374667Y347916D01*
X374619Y347545D01*
X378782D01*
Y351709D01*
D02*
G37*
G36*
X212613Y345545D02*
X208449D01*
Y341382D01*
X208819Y341430D01*
X210097Y341959D01*
X211193Y342801D01*
X212035Y343898D01*
X212564Y345175D01*
X212613Y345545D01*
D02*
G37*
G36*
X292616D02*
X288452D01*
X288501Y345175D01*
X289030Y343898D01*
X289871Y342801D01*
X290968Y341959D01*
X292245Y341430D01*
X292616Y341382D01*
Y345545D01*
D02*
G37*
G36*
X206449D02*
X202285D01*
X202334Y345175D01*
X202863Y343898D01*
X203705Y342801D01*
X204801Y341959D01*
X206078Y341430D01*
X206449Y341382D01*
Y345545D01*
D02*
G37*
G36*
X537000Y344500D02*
X527045D01*
X527102Y343774D01*
X527506Y342090D01*
X528169Y340491D01*
X529073Y339014D01*
X530198Y337698D01*
X531514Y336573D01*
X532991Y335669D01*
X534590Y335006D01*
X536274Y334602D01*
X537000Y334545D01*
Y344500D01*
D02*
G37*
G36*
X548955D02*
X539000D01*
Y334545D01*
X539726Y334602D01*
X541410Y335006D01*
X543009Y335669D01*
X544486Y336573D01*
X545802Y337698D01*
X546927Y339014D01*
X547831Y340491D01*
X548494Y342090D01*
X548898Y343774D01*
X548955Y344500D01*
D02*
G37*
G36*
X464949Y345545D02*
X460785D01*
X460834Y345175D01*
X461363Y343898D01*
X462205Y342801D01*
X463301Y341959D01*
X464578Y341430D01*
X464949Y341382D01*
Y345545D01*
D02*
G37*
G36*
X471112D02*
X466949D01*
Y341382D01*
X467319Y341430D01*
X468597Y341959D01*
X469693Y342801D01*
X470535Y343898D01*
X471064Y345175D01*
X471112Y345545D01*
D02*
G37*
G36*
X384946D02*
X380782D01*
Y341382D01*
X381153Y341430D01*
X382430Y341959D01*
X383526Y342801D01*
X384368Y343898D01*
X384897Y345175D01*
X384946Y345545D01*
D02*
G37*
G36*
X298779D02*
X294616D01*
Y341382D01*
X294986Y341430D01*
X296263Y341959D01*
X297360Y342801D01*
X298201Y343898D01*
X298730Y345175D01*
X298779Y345545D01*
D02*
G37*
G36*
X378782D02*
X374619D01*
X374667Y345175D01*
X375196Y343898D01*
X376038Y342801D01*
X377134Y341959D01*
X378412Y341430D01*
X378782Y341382D01*
Y345545D01*
D02*
G37*
G36*
X141500Y190250D02*
X135070D01*
X135087Y190074D01*
X135430Y188943D01*
X135987Y187900D01*
X136737Y186987D01*
X137651Y186237D01*
X138693Y185680D01*
X139824Y185337D01*
X141000Y185221D01*
X141500D01*
Y190250D01*
D02*
G37*
G36*
X293800Y127300D02*
X285200D01*
Y118700D01*
X293800D01*
Y127300D01*
D02*
G37*
G36*
X496000Y122500D02*
X491126D01*
X491443Y121735D01*
X492004Y121004D01*
X492735Y120443D01*
X493586Y120090D01*
X494500Y119970D01*
X496000D01*
Y122500D01*
D02*
G37*
G36*
X435300Y122800D02*
X426700D01*
Y114200D01*
X435300D01*
Y122800D01*
D02*
G37*
G36*
X511000Y116018D02*
X509695Y115846D01*
X508478Y115342D01*
X507434Y114541D01*
X506633Y113497D01*
X506129Y112280D01*
X506088Y111975D01*
X511000D01*
Y116018D01*
D02*
G37*
G36*
X513000D02*
Y111975D01*
X517911D01*
X517871Y112280D01*
X517368Y113497D01*
X516566Y114541D01*
X515522Y115342D01*
X514305Y115846D01*
X513000Y116018D01*
D02*
G37*
G36*
X499500Y127030D02*
X498000D01*
Y124500D01*
X502874D01*
X502557Y125265D01*
X501996Y125996D01*
X501265Y126557D01*
X500414Y126910D01*
X499500Y127030D01*
D02*
G37*
G36*
X207449Y326048D02*
X206131Y325875D01*
X204902Y325366D01*
X203847Y324556D01*
X203038Y323501D01*
X202529Y322273D01*
X202355Y320955D01*
X202506Y319806D01*
Y232391D01*
X152949D01*
X151670Y232223D01*
X150478Y231729D01*
X149454Y230943D01*
X101005Y182495D01*
X100220Y181471D01*
X99726Y180279D01*
X99558Y179000D01*
Y138500D01*
X99726Y137221D01*
X99911Y136775D01*
Y136250D01*
X100067Y135062D01*
X100526Y133955D01*
X101255Y133005D01*
X102205Y132276D01*
X103312Y131817D01*
X104500Y131661D01*
X105688Y131817D01*
X106795Y132276D01*
X107745Y133005D01*
X108474Y133955D01*
X108933Y135062D01*
X109089Y136250D01*
Y136775D01*
X109274Y137221D01*
X109442Y138500D01*
Y176953D01*
X154996Y222506D01*
X207449D01*
X208728Y222675D01*
X209920Y223169D01*
X210944Y223954D01*
X211729Y224978D01*
X212223Y226170D01*
X212391Y227449D01*
Y272558D01*
X225500D01*
X226779Y272726D01*
X227971Y273220D01*
X228995Y274005D01*
X229780Y275029D01*
X230274Y276221D01*
X230442Y277500D01*
X230274Y278779D01*
X229780Y279971D01*
X228995Y280995D01*
X227971Y281780D01*
X226779Y282274D01*
X225500Y282442D01*
X212391D01*
Y319806D01*
X212542Y320955D01*
X212369Y322273D01*
X211860Y323501D01*
X211051Y324556D01*
X209996Y325366D01*
X208767Y325875D01*
X207449Y326048D01*
D02*
G37*
G36*
X496000Y127030D02*
X494500D01*
X493586Y126910D01*
X492735Y126557D01*
X492004Y125996D01*
X491443Y125265D01*
X491126Y124500D01*
X496000D01*
Y127030D01*
D02*
G37*
G36*
X502874Y122500D02*
X498000D01*
Y119970D01*
X499500D01*
X500414Y120090D01*
X501265Y120443D01*
X501996Y121004D01*
X502557Y121735D01*
X502874Y122500D01*
D02*
G37*
G36*
X469500Y126829D02*
X464500D01*
X463638Y126715D01*
X462836Y126383D01*
X462146Y125854D01*
X461618Y125164D01*
X461285Y124362D01*
X461171Y123500D01*
X461285Y122638D01*
X461618Y121836D01*
X462146Y121146D01*
X462836Y120617D01*
X463638Y120285D01*
X464500Y120171D01*
X469500D01*
X470362Y120285D01*
X471164Y120617D01*
X471854Y121146D01*
X472382Y121836D01*
X472715Y122638D01*
X472828Y123500D01*
X472715Y124362D01*
X472382Y125164D01*
X471854Y125854D01*
X471164Y126383D01*
X470362Y126715D01*
X469500Y126829D01*
D02*
G37*
G36*
X186000Y109407D02*
Y106000D01*
X189407D01*
X189384Y106175D01*
X188931Y107269D01*
X188209Y108209D01*
X187269Y108931D01*
X186175Y109384D01*
X186000Y109407D01*
D02*
G37*
G36*
X288500Y109907D02*
X288325Y109884D01*
X287231Y109431D01*
X286291Y108709D01*
X285569Y107769D01*
X285116Y106675D01*
X285093Y106500D01*
X288500D01*
Y109907D01*
D02*
G37*
G36*
X184000Y109407D02*
X183825Y109384D01*
X182731Y108931D01*
X181791Y108209D01*
X181069Y107269D01*
X180616Y106175D01*
X180593Y106000D01*
X184000D01*
Y109407D01*
D02*
G37*
G36*
X511000Y109975D02*
X506088D01*
X506129Y109670D01*
X506633Y108453D01*
X507434Y107409D01*
X508478Y106607D01*
X509695Y106104D01*
X511000Y105932D01*
Y109975D01*
D02*
G37*
G36*
X517911D02*
X513000D01*
Y105932D01*
X514305Y106104D01*
X515522Y106607D01*
X516566Y107409D01*
X517368Y108453D01*
X517871Y109670D01*
X517911Y109975D01*
D02*
G37*
G36*
X134000Y113907D02*
X133825Y113884D01*
X132731Y113431D01*
X131791Y112709D01*
X131069Y111769D01*
X130616Y110675D01*
X130593Y110500D01*
X134000D01*
Y113907D01*
D02*
G37*
G36*
X136000D02*
Y110500D01*
X139407D01*
X139384Y110675D01*
X138931Y111769D01*
X138209Y112709D01*
X137269Y113431D01*
X136175Y113884D01*
X136000Y113907D01*
D02*
G37*
G36*
X499500Y116829D02*
X494500D01*
X493639Y116715D01*
X492836Y116383D01*
X492146Y115854D01*
X491617Y115164D01*
X491285Y114362D01*
X491172Y113500D01*
X491285Y112638D01*
X491617Y111836D01*
X492146Y111146D01*
X492836Y110617D01*
X493639Y110285D01*
X494500Y110171D01*
X499500D01*
X500361Y110285D01*
X501164Y110617D01*
X501854Y111146D01*
X502383Y111836D01*
X502715Y112638D01*
X502829Y113500D01*
X502715Y114362D01*
X502383Y115164D01*
X501854Y115854D01*
X501164Y116383D01*
X500361Y116715D01*
X499500Y116829D01*
D02*
G37*
G36*
X290500Y109907D02*
Y106500D01*
X293907D01*
X293884Y106675D01*
X293431Y107769D01*
X292709Y108709D01*
X291769Y109431D01*
X290675Y109884D01*
X290500Y109907D01*
D02*
G37*
G36*
X469500Y116829D02*
X464500D01*
X463638Y116715D01*
X462836Y116383D01*
X462146Y115854D01*
X461618Y115164D01*
X461285Y114362D01*
X461171Y113500D01*
X461285Y112638D01*
X461618Y111836D01*
X462146Y111146D01*
X462836Y110617D01*
X463638Y110285D01*
X464500Y110171D01*
X469500D01*
X470362Y110285D01*
X471164Y110617D01*
X471854Y111146D01*
X472382Y111836D01*
X472715Y112638D01*
X472828Y113500D01*
X472715Y114362D01*
X472382Y115164D01*
X471854Y115854D01*
X471164Y116383D01*
X470362Y116715D01*
X469500Y116829D01*
D02*
G37*
G36*
X473315Y173589D02*
X472127Y173433D01*
X471020Y172974D01*
X470070Y172245D01*
X469341Y171295D01*
X468882Y170188D01*
X468726Y169000D01*
X468882Y167812D01*
X469341Y166705D01*
X470070Y165755D01*
X471020Y165026D01*
X472127Y164567D01*
X473315Y164411D01*
X474503Y164567D01*
X475610Y165026D01*
X476560Y165755D01*
X477289Y166705D01*
X477748Y167812D01*
X477904Y169000D01*
X477748Y170188D01*
X477289Y171295D01*
X476560Y172245D01*
X475610Y172974D01*
X474503Y173433D01*
X473315Y173589D01*
D02*
G37*
G36*
X493000D02*
X491812Y173433D01*
X490705Y172974D01*
X489755Y172245D01*
X489026Y171295D01*
X488567Y170188D01*
X488411Y169000D01*
X488567Y167812D01*
X489026Y166705D01*
X489755Y165755D01*
X490705Y165026D01*
X491812Y164567D01*
X493000Y164411D01*
X494188Y164567D01*
X495295Y165026D01*
X496245Y165755D01*
X496974Y166705D01*
X497433Y167812D01*
X497589Y169000D01*
X497433Y170188D01*
X496974Y171295D01*
X496245Y172245D01*
X495295Y172974D01*
X494188Y173433D01*
X493000Y173589D01*
D02*
G37*
G36*
X206000Y169199D02*
Y160500D01*
X214699D01*
X214609Y161411D01*
X214051Y163249D01*
X213146Y164943D01*
X211928Y166428D01*
X210443Y167646D01*
X208749Y168551D01*
X206911Y169109D01*
X206000Y169199D01*
D02*
G37*
G36*
X293500Y167655D02*
Y163500D01*
Y159345D01*
X293609Y159359D01*
X294643Y159788D01*
X294950Y160023D01*
X296950Y159450D01*
X297270Y159450D01*
X305050D01*
Y167550D01*
X297270D01*
X296950Y167550D01*
X294950Y166977D01*
X294643Y167212D01*
X293609Y167641D01*
X293500Y167655D01*
D02*
G37*
G36*
X204000Y169199D02*
X203089Y169109D01*
X201251Y168551D01*
X199557Y167646D01*
X198072Y166428D01*
X196854Y164943D01*
X195949Y163249D01*
X195391Y161411D01*
X195301Y160500D01*
X204000D01*
Y169199D01*
D02*
G37*
G36*
X343655Y175500D02*
X340500D01*
Y172345D01*
X340610Y172359D01*
X341643Y172788D01*
X342531Y173469D01*
X343212Y174357D01*
X343641Y175391D01*
X343655Y175500D01*
D02*
G37*
G36*
X343550Y189050D02*
X335450D01*
Y181270D01*
X335450Y180950D01*
X336023Y178950D01*
X335788Y178643D01*
X335359Y177610D01*
X335345Y177500D01*
X343655D01*
X343641Y177610D01*
X343212Y178643D01*
X342977Y178950D01*
X343550Y180950D01*
X343550Y181270D01*
Y189050D01*
D02*
G37*
G36*
X338500Y175500D02*
X335345D01*
X335359Y175391D01*
X335788Y174357D01*
X336469Y173469D01*
X337357Y172788D01*
X338390Y172359D01*
X338500Y172345D01*
Y175500D01*
D02*
G37*
G36*
X291500Y167655D02*
X291390Y167641D01*
X290357Y167212D01*
X289469Y166531D01*
X288788Y165643D01*
X288359Y164610D01*
X288345Y164500D01*
X291500D01*
Y167655D01*
D02*
G37*
G36*
X436050Y176550D02*
X426950D01*
Y167450D01*
X436050D01*
Y176550D01*
D02*
G37*
G36*
X214699Y158500D02*
X206000D01*
Y149801D01*
X206911Y149891D01*
X208749Y150449D01*
X210443Y151354D01*
X211928Y152572D01*
X213146Y154057D01*
X214051Y155751D01*
X214609Y157589D01*
X214699Y158500D01*
D02*
G37*
G36*
X430500Y156000D02*
X426841D01*
X426872Y155760D01*
X427351Y154604D01*
X428112Y153612D01*
X429105Y152851D01*
X430260Y152372D01*
X430500Y152341D01*
Y156000D01*
D02*
G37*
G36*
X204000Y158500D02*
X195301D01*
X195391Y157589D01*
X195949Y155751D01*
X196854Y154057D01*
X198072Y152572D01*
X199557Y151354D01*
X201251Y150449D01*
X203089Y149891D01*
X204000Y149801D01*
Y158500D01*
D02*
G37*
G36*
X528000Y144341D02*
X526747Y144176D01*
X525579Y143693D01*
X524577Y142923D01*
X523807Y141921D01*
X523323Y140753D01*
X523159Y139500D01*
X523323Y138247D01*
X523807Y137079D01*
X524577Y136077D01*
X525579Y135307D01*
X526747Y134824D01*
X528000Y134659D01*
X529253Y134824D01*
X530421Y135307D01*
X531423Y136077D01*
X532193Y137079D01*
X532677Y138247D01*
X532841Y139500D01*
X532677Y140753D01*
X532193Y141921D01*
X531423Y142923D01*
X530421Y143693D01*
X529253Y144176D01*
X528000Y144341D01*
D02*
G37*
G36*
X185000Y140337D02*
X183878Y140189D01*
X182831Y139756D01*
X181933Y139067D01*
X181244Y138169D01*
X180811Y137122D01*
X180663Y136000D01*
X178800Y134831D01*
X148300D01*
Y137050D01*
X136700D01*
Y125450D01*
X148300D01*
Y127669D01*
X181709D01*
X181899Y127210D01*
X182468Y126468D01*
X183034Y126034D01*
X183468Y125468D01*
X186699Y122237D01*
X186543Y121738D01*
X185657Y120451D01*
X185000Y120537D01*
X183878Y120389D01*
X182831Y119956D01*
X181933Y119267D01*
X181244Y118369D01*
X180811Y117323D01*
X180663Y116200D01*
X180811Y115077D01*
X181244Y114031D01*
X181933Y113133D01*
X182831Y112444D01*
X183878Y112011D01*
X185000Y111863D01*
X186123Y112011D01*
X187169Y112444D01*
X188067Y113133D01*
X188756Y114031D01*
X189189Y115077D01*
X189337Y116200D01*
X189251Y116857D01*
X190538Y117743D01*
X191037Y117899D01*
X212418Y96518D01*
X213160Y95949D01*
X214023Y95591D01*
X214471Y95533D01*
X214781Y95294D01*
X215827Y94861D01*
X216950Y94713D01*
X217950D01*
X219073Y94861D01*
X220119Y95294D01*
X221017Y95983D01*
X221706Y96881D01*
X222139Y97927D01*
X222287Y99050D01*
X222139Y100172D01*
X221706Y101219D01*
X221017Y102117D01*
X220119Y102806D01*
X219343Y103127D01*
X219100Y104219D01*
X219100Y104224D01*
X219354Y105211D01*
X220219Y105569D01*
X221159Y106291D01*
X221881Y107231D01*
X222334Y108325D01*
X222357Y108500D01*
X217450D01*
Y110500D01*
X222357D01*
X222334Y110675D01*
X221881Y111769D01*
X221159Y112709D01*
X220219Y113431D01*
X219354Y113789D01*
X219100Y114776D01*
X219100Y114781D01*
X219343Y115873D01*
X220119Y116194D01*
X221017Y116883D01*
X221706Y117781D01*
X222139Y118827D01*
X222287Y119950D01*
X222139Y121072D01*
X221706Y122119D01*
X221017Y123017D01*
X220119Y123706D01*
X219073Y124139D01*
X217950Y124287D01*
X216950D01*
X215827Y124139D01*
X214781Y123706D01*
X213883Y123017D01*
X213194Y122119D01*
X212761Y121072D01*
X212613Y119950D01*
X212761Y118827D01*
X213194Y117781D01*
X213883Y116883D01*
X214781Y116194D01*
X215557Y115873D01*
X215800Y114781D01*
X215800Y114776D01*
X215546Y113789D01*
X214681Y113431D01*
X213741Y112709D01*
X213019Y111769D01*
X212566Y110675D01*
X212411Y109500D01*
X212414Y109478D01*
X210520Y108544D01*
X188644Y130419D01*
X188735Y132419D01*
X246017D01*
X269919Y108517D01*
Y99000D01*
X270041Y98073D01*
X270399Y97210D01*
X270968Y96468D01*
X278468Y88968D01*
X279210Y88399D01*
X280073Y88041D01*
X281000Y87919D01*
X328483D01*
X328532Y87546D01*
X328852Y86774D01*
X329361Y86111D01*
X330024Y85602D01*
X330796Y85282D01*
X331625Y85173D01*
X336375D01*
X337204Y85282D01*
X337976Y85602D01*
X338639Y86111D01*
X339148Y86774D01*
X339468Y87546D01*
X339577Y88375D01*
Y94625D01*
X339468Y95454D01*
X339148Y96226D01*
X338639Y96889D01*
X337976Y97398D01*
X337204Y97718D01*
X336375Y97827D01*
X331625D01*
X330796Y97718D01*
X330024Y97398D01*
X329361Y96889D01*
X328852Y96226D01*
X328532Y95454D01*
X328483Y95081D01*
X282483D01*
X277081Y100483D01*
Y110000D01*
X276959Y110927D01*
X276601Y111790D01*
X276032Y112532D01*
X250032Y138532D01*
X249290Y139101D01*
X248427Y139459D01*
X247500Y139581D01*
X187397D01*
X187169Y139756D01*
X186123Y140189D01*
X185000Y140337D01*
D02*
G37*
G36*
X432500Y161659D02*
Y158000D01*
X436159D01*
X436128Y158240D01*
X435649Y159396D01*
X434888Y160388D01*
X433895Y161149D01*
X432740Y161628D01*
X432500Y161659D01*
D02*
G37*
G36*
X291500Y162500D02*
X288345D01*
X288359Y162390D01*
X288788Y161357D01*
X289469Y160469D01*
X290357Y159788D01*
X291390Y159359D01*
X291500Y159345D01*
Y162500D01*
D02*
G37*
G36*
X430500Y161659D02*
X430260Y161628D01*
X429105Y161149D01*
X428112Y160388D01*
X427351Y159396D01*
X426872Y158240D01*
X426841Y158000D01*
X430500D01*
Y161659D01*
D02*
G37*
G36*
X436159Y156000D02*
X432500D01*
Y152341D01*
X432740Y152372D01*
X433895Y152851D01*
X434888Y153612D01*
X435649Y154604D01*
X436128Y155760D01*
X436159Y156000D01*
D02*
G37*
G36*
X528000Y164026D02*
X526747Y163862D01*
X525579Y163378D01*
X524577Y162608D01*
X523807Y161606D01*
X523323Y160438D01*
X523159Y159185D01*
X523323Y157932D01*
X523807Y156764D01*
X524577Y155762D01*
X525579Y154992D01*
X526747Y154509D01*
X528000Y154344D01*
X529253Y154509D01*
X530421Y154992D01*
X531423Y155762D01*
X532193Y156764D01*
X532677Y157932D01*
X532841Y159185D01*
X532677Y160438D01*
X532193Y161606D01*
X531423Y162608D01*
X530421Y163378D01*
X529253Y163862D01*
X528000Y164026D01*
D02*
G37*
%LPD*%
D11*
X207449Y227449D02*
Y320955D01*
X207949Y277500D02*
X225500D01*
X104500Y138500D02*
Y179000D01*
X152949Y227449D01*
X207449D01*
D13*
X214950Y99050D02*
X217450D01*
X186000Y128000D02*
X214950Y99050D01*
X281000Y91500D02*
X334000D01*
X273500Y99000D02*
X281000Y91500D01*
X273500Y99000D02*
Y110000D01*
X247500Y136000D02*
X273500Y110000D01*
X185000Y136000D02*
X247500D01*
X234100Y125175D02*
X239825D01*
X250500Y114500D01*
Y95400D02*
Y114500D01*
X240300Y85200D02*
X250500Y95400D01*
X185000Y85200D02*
X240300D01*
X133500Y267000D02*
X174000D01*
X106000Y239500D02*
X133500Y267000D01*
X106000Y222500D02*
Y239500D01*
X142500Y131250D02*
X182750D01*
X185000Y129000D02*
Y136000D01*
D14*
X301000Y192000D02*
Y212500D01*
D15*
X25000Y76000D02*
D03*
D16*
X54500D02*
D03*
X115000Y46500D02*
D03*
X528000Y159185D02*
D03*
Y139500D02*
D03*
D17*
X115000Y76000D02*
D03*
D18*
X207449Y320955D02*
D03*
Y346545D02*
D03*
X293616Y320955D02*
D03*
Y346545D02*
D03*
X379782Y320955D02*
D03*
Y346545D02*
D03*
X465949Y320955D02*
D03*
Y346545D02*
D03*
X19500Y7200D02*
D03*
X38000Y19000D02*
D03*
X19500Y30800D02*
D03*
D19*
X218945Y355797D02*
D03*
X305112D02*
D03*
X391278D02*
D03*
X477445D02*
D03*
D20*
X142500Y131250D02*
D03*
D21*
Y191250D02*
D03*
D22*
X422200Y257500D02*
D03*
X431800D02*
D03*
X262500Y55000D02*
D03*
Y76000D02*
D03*
X185000Y85200D02*
D03*
Y105000D02*
D03*
Y136000D02*
D03*
Y116200D02*
D03*
X115000Y109500D02*
D03*
X135000D02*
D03*
X274500Y64500D02*
D03*
Y76000D02*
D03*
X431000Y101000D02*
D03*
X289500Y105500D02*
D03*
D23*
X104500Y138500D02*
D03*
X6500D02*
D03*
X106000Y222500D02*
D03*
X8000D02*
D03*
X106000Y281250D02*
D03*
X8000D02*
D03*
Y339000D02*
D03*
X106000D02*
D03*
D24*
X205000Y59500D02*
D03*
Y159500D02*
D03*
D25*
X387000Y91500D02*
D03*
X334000D02*
D03*
D26*
X316500Y34000D02*
D03*
X266500D02*
D03*
X275500Y277500D02*
D03*
X225500D02*
D03*
D27*
X94500Y15500D02*
D03*
X540000Y14000D02*
D03*
X538000Y345500D02*
D03*
X151500Y317000D02*
D03*
D28*
X52000Y27185D02*
D03*
X71685D02*
D03*
X52000Y7500D02*
D03*
X71685D02*
D03*
D29*
X143500Y12000D02*
D03*
D30*
X234100Y93825D02*
D03*
Y104275D02*
D03*
Y125175D02*
D03*
Y114725D02*
D03*
X217450Y109500D02*
D03*
Y119950D02*
D03*
Y99050D02*
D03*
D31*
X497000Y53500D02*
D03*
D32*
Y63500D02*
D03*
Y73500D02*
D03*
Y83500D02*
D03*
Y93500D02*
D03*
Y103500D02*
D03*
Y113500D02*
D03*
Y123500D02*
D03*
X467000Y53500D02*
D03*
Y63500D02*
D03*
Y73500D02*
D03*
Y83500D02*
D03*
Y93500D02*
D03*
Y103500D02*
D03*
Y113500D02*
D03*
Y123500D02*
D03*
D33*
X291000Y192000D02*
D03*
X301000D02*
D03*
X311000D02*
D03*
D34*
X431500Y157000D02*
D03*
X443000Y68500D02*
D03*
X473315Y169000D02*
D03*
X493000D02*
D03*
D35*
X431500Y172000D02*
D03*
X443000Y53500D02*
D03*
D36*
X512000Y110975D02*
D03*
D37*
Y73475D02*
D03*
D38*
X301000Y163500D02*
D03*
D39*
X292500D02*
D03*
X339500Y176500D02*
D03*
D40*
Y185000D02*
D03*
D41*
X431000Y118500D02*
D03*
X289500Y123000D02*
D03*
D42*
X301000Y212500D02*
D03*
X154500Y267000D02*
D03*
X174000D02*
D03*
X161000D02*
D03*
X167500D02*
D03*
D43*
X211950Y115000D02*
X217450Y109500D01*
M02*
