G04 Layer_Physical_Order=1*
G04 Layer_Color=255*
%FSLAX25Y25*%
%MOIN*%
G70*
G01*
G75*
%ADD10R,0.11000X0.06500*%
%ADD11R,0.03937X0.05512*%
%ADD12C,0.01000*%
%ADD13C,0.20000*%
%ADD14C,0.07000*%
G36*
X171430Y101070D02*
X168049D01*
X167888Y101544D01*
X168209Y101791D01*
X168931Y102731D01*
X169384Y103825D01*
X169407Y104000D01*
X160593D01*
X160616Y103825D01*
X161069Y102731D01*
X161791Y101791D01*
X162112Y101544D01*
X161951Y101070D01*
X101070D01*
Y128929D01*
X123902D01*
X124093Y128468D01*
X117800Y122175D01*
X117300Y122382D01*
Y124550D01*
X104700D01*
Y116450D01*
X117300D01*
Y119175D01*
X118000D01*
X118507Y119275D01*
X118937Y119563D01*
X121029Y121655D01*
X121491Y121464D01*
Y115775D01*
X126859D01*
X128102Y114532D01*
X127895Y114032D01*
X125031D01*
Y111276D01*
X130968D01*
Y113674D01*
X133972D01*
X134480Y113775D01*
X134910Y114063D01*
X136517Y115670D01*
X137001Y115447D01*
X136966Y115000D01*
X137102Y113274D01*
X137506Y111590D01*
X138169Y109991D01*
X139073Y108514D01*
X140198Y107198D01*
X141514Y106073D01*
X142991Y105169D01*
X144590Y104506D01*
X146274Y104102D01*
X147000Y104045D01*
Y115000D01*
X148000D01*
Y116000D01*
X158955D01*
X158898Y116726D01*
X158494Y118410D01*
X158130Y119288D01*
X158554Y119572D01*
X161160Y116966D01*
X160811Y116122D01*
X160663Y115000D01*
X160811Y113877D01*
X161244Y112831D01*
X161933Y111933D01*
X162831Y111244D01*
X163877Y110811D01*
X165000Y110663D01*
X166122Y110811D01*
X167169Y111244D01*
X168067Y111933D01*
X168756Y112831D01*
X169189Y113877D01*
X169337Y115000D01*
X169189Y116122D01*
X168756Y117169D01*
X168067Y118067D01*
X167169Y118756D01*
X166122Y119189D01*
X165000Y119337D01*
X163877Y119189D01*
X163034Y118840D01*
X158662Y123213D01*
X158853Y123674D01*
X160895D01*
X161244Y122831D01*
X161933Y121933D01*
X162831Y121244D01*
X163877Y120811D01*
X165000Y120663D01*
X166122Y120811D01*
X167169Y121244D01*
X168067Y121933D01*
X168756Y122831D01*
X169189Y123878D01*
X169337Y125000D01*
X169189Y126122D01*
X168756Y127169D01*
X168067Y128067D01*
X167594Y128429D01*
X167764Y128929D01*
X171430D01*
Y101070D01*
D02*
G37*
%LPC*%
G36*
X117500Y108500D02*
X112000D01*
Y105250D01*
X117500D01*
Y108500D01*
D02*
G37*
G36*
X164000Y109407D02*
X163825Y109384D01*
X162731Y108931D01*
X161791Y108209D01*
X161069Y107269D01*
X160616Y106175D01*
X160593Y106000D01*
X164000D01*
Y109407D01*
D02*
G37*
G36*
X158955Y114000D02*
X149000D01*
Y104045D01*
X149726Y104102D01*
X151410Y104506D01*
X153009Y105169D01*
X154486Y106073D01*
X155802Y107198D01*
X156927Y108514D01*
X157831Y109991D01*
X158494Y111590D01*
X158898Y113274D01*
X158955Y114000D01*
D02*
G37*
G36*
X110000Y108500D02*
X104500D01*
Y105250D01*
X110000D01*
Y108500D01*
D02*
G37*
G36*
X166000Y109407D02*
Y106000D01*
X169407D01*
X169384Y106175D01*
X168931Y107269D01*
X168209Y108209D01*
X167269Y108931D01*
X166175Y109384D01*
X166000Y109407D01*
D02*
G37*
G36*
X110000Y113750D02*
X104500D01*
Y110500D01*
X110000D01*
Y113750D01*
D02*
G37*
G36*
X117500D02*
X112000D01*
Y110500D01*
X117500D01*
Y113750D01*
D02*
G37*
G36*
X127000Y109276D02*
X125031D01*
Y106520D01*
X127000D01*
Y109276D01*
D02*
G37*
G36*
X130968D02*
X129000D01*
Y106520D01*
X130968D01*
Y109276D01*
D02*
G37*
%LPD*%
D10*
X111000Y109500D02*
D03*
Y120500D02*
D03*
D11*
X128000Y110276D02*
D03*
X131740Y119331D02*
D03*
X124260D02*
D03*
D12*
X157546Y125000D02*
X165000D01*
X154446Y128100D02*
X157546Y125000D01*
X111000Y120500D02*
X118000D01*
X125600Y128100D01*
X140509D01*
X131740Y119331D02*
X140509Y128100D01*
X124260Y119331D02*
X125177D01*
X129508Y115000D01*
X133972D01*
X140509Y128100D02*
X154446D01*
X133972Y115000D02*
X136000Y117028D01*
Y120000D01*
X142300Y126300D01*
X153700D01*
X165000Y115000D01*
D13*
X148000D02*
D03*
D14*
X165000Y105000D02*
D03*
Y115000D02*
D03*
Y125000D02*
D03*
M02*
